<?xml version="1.0" encoding="UTF-8"?>
<svg version="1.1" xmlns="http://www.w3.org/2000/svg" width="1024" height="1024">
<path d="M0 0 C337.92 0 675.84 0 1024 0 C1024 337.92 1024 675.84 1024 1024 C686.08 1024 348.16 1024 0 1024 C0 686.08 0 348.16 0 0 Z " fill="#FEFEFE" transform="translate(0,0)"/>
<path d="M0 0 C0.66 0.66 1.32 1.32 2 2 C1.94921875 3.8828125 1.94921875 3.8828125 1.6875 6.125 C1.63868159 9.96945012 2.16231994 11.8410916 4.6875 14.75 C6.10583931 16.18584967 7.54725501 17.59897085 9 19 C10.09935035 20.12729416 11.19545447 21.25775925 12.2890625 22.390625 C13.46226369 23.59499623 14.63675094 24.79811597 15.8125 26 C16.38766357 26.5887793 16.96282715 27.17755859 17.55541992 27.78417969 C18.99857661 29.22882966 20.49535175 30.61951153 22 32 C22.66 32 23.32 32 24 32 C25.20151896 29.25538312 26.38638103 26.50547873 27.5625 23.75 C27.90474609 22.97269531 28.24699219 22.19539063 28.59960938 21.39453125 C28.91865234 20.64042969 29.23769531 19.88632812 29.56640625 19.109375 C30.01415405 18.07248535 30.01415405 18.07248535 30.47094727 17.01464844 C31.29067949 13.89308393 30.40697075 11.81394149 29 9 C28.625 6.125 28.625 6.125 29 3 C31.0625 0.5625 31.0625 0.5625 34 -1 C37.6875 -0.9375 37.6875 -0.9375 41 0 C43.47157109 3.70735663 43.22699255 5.61147745 43 10 C42.7421875 10.7321875 42.484375 11.464375 42.21875 12.21875 C41.87538142 16.58443629 44.09943877 19.47095304 46.3125 23.125 C46.72951172 23.84042969 47.14652344 24.55585938 47.57617188 25.29296875 C49.31148606 28.25435021 51.09535582 31.14303374 53 34 C56.35352369 29.18376917 59.51560284 24.27858077 62.4375 19.1875 C62.95183594 18.29417969 63.46617187 17.40085937 63.99609375 16.48046875 C65.1337529 13.66952103 64.99841582 12.78294065 64 10 C63.4488189 3.82677165 63.4488189 3.82677165 65.625 0.5625 C68.7370662 -1.48491197 70.34394496 -1.68551032 74 -1 C76.4375 1.125 76.4375 1.125 78 4 C77.82322589 6.8873105 77.23310497 9.25406408 76.375 12 C75.851695 14.79095999 76.52662388 17.21891528 77 20 C76.505 21.485 76.505 21.485 76 23 C75.34 22.67 74.68 22.34 74 22 C73.26924352 19.6859378 72.59861742 17.35171131 72 15 C71.01 15 70.02 15 69 15 C68.76667969 15.66128906 68.53335938 16.32257813 68.29296875 17.00390625 C67.24751455 19.42645421 66.1488759 21.52566134 64.80078125 23.77734375 C64.39666016 24.45603516 63.99253906 25.13472656 63.57617188 25.83398438 C62.73231779 27.23866883 61.87807025 28.63716054 61.01367188 30.02929688 C59.00490224 33.44194094 57.97277433 35.29543259 58.12890625 39.3359375 C58.92096657 42.09776073 58.92096657 42.09776073 60.625 44.6875 C61.07875 45.450625 61.5325 46.21375 62 47 C61.67 47.99 61.34 48.98 61 50 C61.87914688 52.6569191 61.87914688 52.6569191 63 55 C62.34 55 61.68 55 61 55 C59.82823482 52.87767021 58.66245215 50.75242209 57.5 48.625 C57.16613281 48.02171875 56.83226562 47.4184375 56.48828125 46.796875 C54 42.2265625 54 42.2265625 54 40 C53.34 40 52.68 40 52 40 C51.773125 40.825 51.54625 41.65 51.3125 42.5 C49.93233975 46.18042734 48.13251073 48.91760894 45.828125 52.0703125 C44.72859893 54.01123294 44.72859893 54.01123294 45.796875 56.0546875 C46.19390625 56.69664062 46.5909375 57.33859375 47 58 C47.33 58.99 47.66 59.98 48 61 C49.5843317 60.91231752 51.16753567 60.80412671 52.75 60.6875 C53.63171875 60.62949219 54.5134375 60.57148438 55.421875 60.51171875 C58.32303774 59.9358819 59.79225607 58.92403852 62 57 C61.649375 57.61875 61.29875 58.2375 60.9375 58.875 C60.4734375 59.926875 60.4734375 59.926875 60 61 C60.33 61.66 60.66 62.32 61 63 C60.75566013 64.9202239 60.48022853 66.83655499 60.1875 68.75 C59.7315741 73.11369153 59.7315741 73.11369153 61.08984375 77.16015625 C63.49649327 79.75051948 65.05754793 80.93268199 68.625 81.1875 C71.62983768 79.68508116 72.98211028 77.64369097 75 75 C74.41089844 73.95199219 73.82179688 72.90398437 73.21484375 71.82421875 C72.45519913 70.44560443 71.69611344 69.06668202 70.9375 67.6875 C70.54755859 66.99720703 70.15761719 66.30691406 69.75585938 65.59570312 C68.75962517 63.77074312 67.87247158 61.88726123 67 60 C67.33 59.01 67.66 58.02 68 57 C70.97 62.61 73.94 68.22 77 74 C78.32 73.34 79.64 72.68 81 72 C82.11375 71.443125 82.11375 71.443125 83.25 70.875 C85.42711108 68.95485658 85.42711108 68.95485658 85.125 65.125 C85.06505859 64.06539062 85.06505859 64.06539062 85.00390625 62.984375 C85 61 85 61 86.0625 58.375 C87.28432519 55.27970953 86.65536081 53.2039862 86 50 C86.33 49.67 86.66 49.34 87 49 C86.71395102 47.32457024 86.38218767 45.65614657 86 44 C88.70608417 45.35304209 88.96183047 46.80966544 90.125 49.5625 C90.47820312 50.38878906 90.83140625 51.21507812 91.1953125 52.06640625 C91.59363281 53.02353516 91.59363281 53.02353516 92 54 C92.35304199 52.95021973 92.70608398 51.90043945 93.06982422 50.81884766 C94.37962233 46.92928607 95.69716946 43.04238706 97.01708984 39.15625 C97.5875729 37.47304901 98.15594405 35.78913072 98.72216797 34.10449219 C99.53581141 31.68493605 100.35698309 29.26805036 101.1796875 26.8515625 C101.55793167 25.71867294 101.55793167 25.71867294 101.94381714 24.56289673 C103.77225659 19.22774341 103.77225659 19.22774341 106 17 C104.68 16.67 103.36 16.34 102 16 C102.66 15.34 103.32 14.68 104 14 C104.05252394 11.72406939 104.05252394 11.72406939 103.8125 9.1875 C103.73180261 5.20450724 103.80398973 4.28001467 106.1875 0.875 C109 -1 109 -1 111.5625 -1.5625 C114.85940593 -0.80167555 116.04476263 0.24818444 118 3 C118.5 6 118.5 6 118 9 C115.76793569 11.84780619 114.45007001 12.84997666 111 14 C109.98257535 16.27128232 109.16905476 18.42417616 108.40625 20.78125 C108.17345337 21.46876343 107.94065674 22.15627686 107.70080566 22.86462402 C106.95599452 25.0728361 106.22784896 27.28614614 105.5 29.5 C105.01020152 30.96130227 104.51932794 32.42224466 104.02734375 33.8828125 C103.0866722 36.68078874 102.15496116 39.48147244 101.23144531 42.28515625 C100.2271299 45.31482782 99.18974766 48.32950702 98.140625 51.34375 C97.03765347 54.87930259 96.7128627 56.56763387 98 60 C98.33 60.33 98.66 60.66 99 61 C98.8125 64.4375 98.8125 64.4375 98 68 C95.94921875 69.22265625 95.94921875 69.22265625 94 70 C94.05180399 74.41762977 94.14686879 78.83329382 94.25 83.25 C94.26417969 84.50425781 94.27835937 85.75851562 94.29296875 87.05078125 C94.32519531 88.25605469 94.35742188 89.46132813 94.390625 90.703125 C94.4220459 92.36843262 94.4220459 92.36843262 94.45410156 94.06738281 C95.11544086 97.62015902 96.39594143 98.60559563 99 101 C99.42145216 104.43182475 99.6712306 106.81547541 97.9375 109.875 C96 111 96 111 92.7421875 110.80859375 C88.92064908 111.59926643 88.92064908 111.59926643 87.4309082 114.32519531 C85.878113 117.56931147 84.50875753 120.84242629 83.1875 124.1875 C82.71119141 125.32509766 82.23488281 126.46269531 81.74414062 127.63476562 C78.5833854 135.21353217 78.5833854 135.21353217 76 143 C76.63270867 144.34977849 77.30062468 145.68352881 78 147 C77.81026737 150.09896635 77.48108777 152.24038773 75.8125 154.875 C73.05655076 156.58558918 71.17374516 156.45339217 68 156 C65.5625 154.625 65.5625 154.625 64 152 C64.2199707 149.98901367 64.2199707 149.98901367 64.67578125 147.60546875 C65.46589941 140.9218066 63.16499894 135.7766939 60.625 129.6875 C59.78078391 127.58847181 58.93952391 125.48825172 58.1015625 123.38671875 C57.72338379 122.47108154 57.34520508 121.55544434 56.95556641 120.61206055 C56.02866493 118.07835619 55.45252245 115.65549765 55 113 C53.68 113 52.36 113 51 113 C50.85304688 113.52464844 50.70609375 114.04929687 50.5546875 114.58984375 C49.31456794 118.87324522 47.98524811 123.09390633 46.4296875 127.2734375 C46.15398926 128.02117432 45.87829102 128.76891113 45.59423828 129.53930664 C45.03793766 131.03719995 44.47142441 132.5313458 43.89404297 134.02124023 C42.37856126 138.12209413 41.67178341 140.68517208 43 145 C43.31602224 147.82865808 43.23314672 150.10898061 43 153 C40.81246717 155.6923481 39.41576045 155.93936827 36 156.4375 C33 156 33 156 30.5625 154.4375 C29 152 29 152 29.1875 148.5625 C30 145 30 145 30.73608398 142.67260742 C31.10624803 138.92405441 29.81793533 136.96633755 28.03515625 133.67578125 C27.72299667 133.08830612 27.4108371 132.50083099 27.08921814 131.89555359 C26.0935026 130.02709735 25.07903794 128.16969676 24.0625 126.3125 C23.05313001 124.44289605 22.04780432 122.57124363 21.04649353 120.6973114 C20.13893737 119.00285532 19.22023907 117.31438118 18.30102539 115.6262207 C17 113 17 113 17 111 C15.906875 111.0825 14.81375 111.165 13.6875 111.25 C10 111 10 111 8 109.4375 C6.54895723 105.90058325 7.02055829 103.65658237 8 100 C8.66676758 99.38866211 9.33353516 98.77732422 10.02050781 98.14746094 C12.57161368 95.37988235 12.5334798 93.85948979 12.609375 90.140625 C12.64160156 89.02558594 12.67382812 87.91054688 12.70703125 86.76171875 C12.72121094 85.60285156 12.73539062 84.44398438 12.75 83.25 C12.79447266 81.48849609 12.79447266 81.48849609 12.83984375 79.69140625 C12.91050727 76.79420178 12.96322266 73.89780045 13 71 C12.071875 70.5978125 12.071875 70.5978125 11.125 70.1875 C9 69 9 69 7 66 C6.69415549 63.09447719 6.73268766 61.47639493 8.17456055 58.90673828 C9.43533637 54.46698764 7.90927258 51.14206221 6.45703125 46.8671875 C6.17276779 45.99353546 5.88850433 45.11988342 5.59562683 44.21975708 C4.99203614 42.37651905 4.38045544 40.53588091 3.76147461 38.69775391 C2.8155224 35.88399022 1.8971287 33.06233712 0.98242188 30.23828125 C0.39223461 28.44738542 -0.19951026 26.65700199 -0.79296875 24.8671875 C-1.06811813 24.02340546 -1.34326752 23.17962341 -1.62675476 22.31027222 C-1.89325333 21.52580719 -2.15975189 20.74134216 -2.43432617 19.93310547 C-2.66464035 19.24425262 -2.89495453 18.55539978 -3.13224792 17.84567261 C-4.62161996 14.67784017 -7.097141 12.91831325 -9.75 10.6875 C-12 8 -12 8 -12.0625 4.875 C-11 2 -11 2 -9.375 0.0625 C-5.95249533 -1.46862051 -3.58323398 -0.8626304 0 0 Z " fill="#153EFE" transform="translate(274,420)"/>
<path d="M0 0 C4.29 0 8.58 0 13 0 C13 15.51 13 31.02 13 47 C16.3 45.02 19.6 43.04 23 41 C31.04374785 37.55267949 39.6534604 36.38198785 48.1875 39 C58.82302034 43.79814535 63.65122192 52.63614362 67.80859375 63.01953125 C71.41407191 74.43273452 69.6435046 89.00926095 64.74609375 99.75 C60.0431083 108.1564263 53.9966205 115.19954683 44.6953125 118.37109375 C33.99885013 120.86693497 25.22994735 118.23777813 15.9140625 112.77734375 C14.57576385 111.90085238 13.27982009 110.95986506 12 110 C12 112.31 12 114.62 12 117 C8.04 117 4.08 117 0 117 C0 78.39 0 39.78 0 0 Z " fill="#234EFE" transform="translate(522,409)"/>
<path d="M0 0 C8.23808712 6.32225291 14.09191708 13.95716727 16.6875 24.0625 C18.20737091 37.08211705 17.520856 49.38792542 9.875 60.375 C3.34811262 68.33422177 -4.12927122 72.998332 -14.3125 75.0625 C-25.85396398 76.00762776 -33.62456321 73.30601537 -42.79296875 66.3046875 C-51.2233738 58.80228053 -54.79347267 48.64370241 -55.55078125 37.58203125 C-55.79423338 25.42223786 -53.31619588 15.46038807 -45.3125 6.0625 C-31.78615342 -7.29744162 -16.30059049 -9.53430765 0 0 Z " fill="#2450FE" transform="translate(654.3125,452.9375)"/>
<path d="M0 0 C3.3125 0.9375 3.3125 0.9375 5.3125 2.9375 C5.26171875 4.8203125 5.26171875 4.8203125 5 7.0625 C4.95118159 10.90695012 5.47481994 12.7785916 8 15.6875 C9.41833931 17.12334967 10.85975501 18.53647085 12.3125 19.9375 C13.41185035 21.06479416 14.50795447 22.19525925 15.6015625 23.328125 C16.77476369 24.53249623 17.94925094 25.73561597 19.125 26.9375 C19.70016357 27.5262793 20.27532715 28.11505859 20.86791992 28.72167969 C22.31107661 30.16632966 23.80785175 31.55701153 25.3125 32.9375 C25.9725 32.9375 26.6325 32.9375 27.3125 32.9375 C28.51401896 30.19288312 29.69888103 27.44297873 30.875 24.6875 C31.21724609 23.91019531 31.55949219 23.13289063 31.91210938 22.33203125 C32.23115234 21.57792969 32.55019531 20.82382812 32.87890625 20.046875 C33.32665405 19.00998535 33.32665405 19.00998535 33.78344727 17.95214844 C34.60317949 14.83058393 33.71947075 12.75144149 32.3125 9.9375 C31.9375 7.0625 31.9375 7.0625 32.3125 3.9375 C34.375 1.5 34.375 1.5 37.3125 -0.0625 C41 0 41 0 44.3125 0.9375 C46.78407109 4.64485663 46.53949255 6.54897745 46.3125 10.9375 C46.0546875 11.6696875 45.796875 12.401875 45.53125 13.15625 C45.18788142 17.52193629 47.41193877 20.40845304 49.625 24.0625 C50.04201172 24.77792969 50.45902344 25.49335938 50.88867188 26.23046875 C52.62398606 29.19185021 54.40785582 32.08053374 56.3125 34.9375 C59.66602369 30.12126917 62.82810284 25.21608077 65.75 20.125 C66.26433594 19.23167969 66.77867187 18.33835937 67.30859375 17.41796875 C68.4462529 14.60702103 68.31091582 13.72044065 67.3125 10.9375 C66.7613189 4.76427165 66.7613189 4.76427165 68.9375 1.5 C72.0495662 -0.54741197 73.65644496 -0.74801032 77.3125 -0.0625 C79.75 2.0625 79.75 2.0625 81.3125 4.9375 C81.13572589 7.8248105 80.54560497 10.19156408 79.6875 12.9375 C79.164195 15.72845999 79.83912388 18.15641528 80.3125 20.9375 C79.8175 22.4225 79.8175 22.4225 79.3125 23.9375 C78.6525 23.6075 77.9925 23.2775 77.3125 22.9375 C76.58174352 20.6234378 75.91111742 18.28921131 75.3125 15.9375 C74.3225 15.9375 73.3325 15.9375 72.3125 15.9375 C72.07917969 16.59878906 71.84585938 17.26007813 71.60546875 17.94140625 C70.56001455 20.36395421 69.4613759 22.46316134 68.11328125 24.71484375 C67.70916016 25.39353516 67.30503906 26.07222656 66.88867188 26.77148438 C66.04481779 28.17616883 65.19057025 29.57466054 64.32617188 30.96679688 C62.31740224 34.37944094 61.28527433 36.23293259 61.44140625 40.2734375 C62.23346657 43.03526073 62.23346657 43.03526073 63.9375 45.625 C64.39125 46.388125 64.845 47.15125 65.3125 47.9375 C64.9825 48.9275 64.6525 49.9175 64.3125 50.9375 C65.19164688 53.5944191 65.19164688 53.5944191 66.3125 55.9375 C65.6525 55.9375 64.9925 55.9375 64.3125 55.9375 C63.14073482 53.81517021 61.97495215 51.68992209 60.8125 49.5625 C60.47863281 48.95921875 60.14476562 48.3559375 59.80078125 47.734375 C57.3125 43.1640625 57.3125 43.1640625 57.3125 40.9375 C56.6525 40.9375 55.9925 40.9375 55.3125 40.9375 C55.085625 41.7625 54.85875 42.5875 54.625 43.4375 C53.24483975 47.11792734 51.44501073 49.85510894 49.140625 53.0078125 C48.04109893 54.94873294 48.04109893 54.94873294 49.109375 56.9921875 C49.50640625 57.63414062 49.9034375 58.27609375 50.3125 58.9375 C50.6425 59.9275 50.9725 60.9175 51.3125 61.9375 C52.8968317 61.84981752 54.48003567 61.74162671 56.0625 61.625 C56.94421875 61.56699219 57.8259375 61.50898438 58.734375 61.44921875 C61.63553774 60.8733819 63.10475607 59.86153852 65.3125 57.9375 C64.961875 58.55625 64.61125 59.175 64.25 59.8125 C63.7859375 60.864375 63.7859375 60.864375 63.3125 61.9375 C63.6425 62.5975 63.9725 63.2575 64.3125 63.9375 C64.06816013 65.8577239 63.79272853 67.77405499 63.5 69.6875 C63.0440741 74.05119153 63.0440741 74.05119153 64.40234375 78.09765625 C66.80899327 80.68801948 68.37004793 81.87018199 71.9375 82.125 C74.94233768 80.62258116 76.29461028 78.58119097 78.3125 75.9375 C77.72339844 74.88949219 77.13429688 73.84148437 76.52734375 72.76171875 C75.76769913 71.38310443 75.00861344 70.00418202 74.25 68.625 C73.86005859 67.93470703 73.47011719 67.24441406 73.06835938 66.53320312 C72.07212517 64.70824312 71.18497158 62.82476123 70.3125 60.9375 C70.6425 59.9475 70.9725 58.9575 71.3125 57.9375 C74.2825 63.5475 77.2525 69.1575 80.3125 74.9375 C81.6325 74.2775 82.9525 73.6175 84.3125 72.9375 C85.42625 72.380625 85.42625 72.380625 86.5625 71.8125 C88.73961108 69.89235658 88.73961108 69.89235658 88.4375 66.0625 C88.37755859 65.00289062 88.37755859 65.00289062 88.31640625 63.921875 C88.3125 61.9375 88.3125 61.9375 89.375 59.3125 C90.59682519 56.21720953 89.96786081 54.1414862 89.3125 50.9375 C89.6425 50.6075 89.9725 50.2775 90.3125 49.9375 C90.02645102 48.26207024 89.69468767 46.59364657 89.3125 44.9375 C92.01858417 46.29054209 92.27433047 47.74716544 93.4375 50.5 C93.79070312 51.32628906 94.14390625 52.15257812 94.5078125 53.00390625 C94.90613281 53.96103516 94.90613281 53.96103516 95.3125 54.9375 C95.66554199 53.88771973 96.01858398 52.83793945 96.38232422 51.75634766 C97.69212233 47.86678607 99.00966946 43.97988706 100.32958984 40.09375 C100.9000729 38.41054901 101.46844405 36.72663072 102.03466797 35.04199219 C102.84831141 32.62243605 103.66948309 30.20555036 104.4921875 27.7890625 C104.87043167 26.65617294 104.87043167 26.65617294 105.25631714 25.50039673 C107.08475659 20.16524341 107.08475659 20.16524341 109.3125 17.9375 C107.9925 17.6075 106.6725 17.2775 105.3125 16.9375 C105.9725 16.2775 106.6325 15.6175 107.3125 14.9375 C107.36502394 12.66156939 107.36502394 12.66156939 107.125 10.125 C107.04430261 6.14200724 107.11648973 5.21751467 109.5 1.8125 C112.3125 -0.0625 112.3125 -0.0625 114.875 -0.625 C118.17190593 0.13582445 119.35726263 1.18568444 121.3125 3.9375 C121.8125 6.9375 121.8125 6.9375 121.3125 9.9375 C119.08043569 12.78530619 117.76257001 13.78747666 114.3125 14.9375 C113.29507535 17.20878232 112.48155476 19.36167616 111.71875 21.71875 C111.48595337 22.40626343 111.25315674 23.09377686 111.01330566 23.80212402 C110.26849452 26.0103361 109.54034896 28.22364614 108.8125 30.4375 C108.32270152 31.89880227 107.83182794 33.35974466 107.33984375 34.8203125 C106.3991722 37.61828874 105.46746116 40.41897244 104.54394531 43.22265625 C103.5396299 46.25232782 102.50224766 49.26700702 101.453125 52.28125 C100.35015347 55.81680259 100.0253627 57.50513387 101.3125 60.9375 C101.6425 61.2675 101.9725 61.5975 102.3125 61.9375 C102.125 65.375 102.125 65.375 101.3125 68.9375 C99.3325 69.9275 99.3325 69.9275 97.3125 70.9375 C97.3125 77.2075 97.3125 83.4775 97.3125 89.9375 C96.9825 89.9375 96.6525 89.9375 96.3125 89.9375 C96.22564713 86.64599875 96.17216105 83.3547904 96.125 80.0625 C96.09986328 79.12535156 96.07472656 78.18820312 96.04882812 77.22265625 C96.03916016 76.32675781 96.02949219 75.43085938 96.01953125 74.5078125 C96.0038208 73.68039551 95.98811035 72.85297852 95.97192383 72.00048828 C96.08431396 71.31970215 96.1967041 70.63891602 96.3125 69.9375 C97.3025 69.2775 98.2925 68.6175 99.3125 67.9375 C99.3125 67.2775 99.3125 66.6175 99.3125 65.9375 C98.9825 66.5975 98.6525 67.2575 98.3125 67.9375 C97.6525 67.6075 96.9925 67.2775 96.3125 66.9375 C96.3125 65.6175 96.3125 64.2975 96.3125 62.9375 C95.3225 62.9375 94.3325 62.9375 93.3125 62.9375 C91.81428941 66.30847383 91.3125 68.14192119 91.3125 71.9375 C89.18648522 75.01655588 87.44066357 76.85205762 84.3125 78.9375 C85.05839147 84.18742842 87.48221038 87.99836629 90.1328125 92.51171875 C90.71675781 93.71248047 90.71675781 93.71248047 91.3125 94.9375 C90.9825 95.5975 90.6525 96.2575 90.3125 96.9375 C87.1385218 95.99864258 85.62885357 95.399923 83.73046875 92.625 C83.32441406 91.738125 82.91835938 90.85125 82.5 89.9375 C81.87158203 88.6071875 81.87158203 88.6071875 81.23046875 87.25 C80.3125 84.9375 80.3125 84.9375 80.3125 82.9375 C78.6625 83.9275 77.0125 84.9175 75.3125 85.9375 C75.68761719 86.37320313 76.06273437 86.80890625 76.44921875 87.2578125 C79.77109777 91.12357599 83.05892927 95.01407648 86.3125 98.9375 C85.9825 99.5975 85.6525 100.2575 85.3125 100.9375 C81.63180113 99.40106148 79.32474796 97.15599055 76.5625 94.3125 C75.76328125 93.49523437 74.9640625 92.67796875 74.140625 91.8359375 C73.53734375 91.20945312 72.9340625 90.58296875 72.3125 89.9375 C67.0438907 91.92315677 63.48004996 94.18617506 60.3125 98.9375 C59.9825 97.9475 59.6525 96.9575 59.3125 95.9375 C57.6625 96.2675 56.0125 96.5975 54.3125 96.9375 C54.993125 96.40125 55.67375 95.865 56.375 95.3125 C59.76145468 92.57643062 59.76145468 92.57643062 63.125 89.8125 C63.72957031 89.31492187 64.33414063 88.81734375 64.95703125 88.3046875 C66.54718559 87.02165652 66.54718559 87.02165652 66.3125 84.9375 C64.70650787 83.34369532 64.70650787 83.34369532 62.625 81.8125 C61.94050781 81.27367187 61.25601563 80.73484375 60.55078125 80.1796875 C57.83646483 78.67331294 56.37380796 78.47322581 53.3125 78.9375 C50.41924038 80.79666683 48.23061588 83.08593901 46.3125 85.9375 C46.18639103 89.29156512 46.18639103 89.29156512 47.3125 91.9375 C46.755625 91.628125 46.19875 91.31875 45.625 91 C43.36335156 89.81027649 43.36335156 89.81027649 40.875 89.6875 C37.01599933 88.55803639 35.74535769 86.09363971 33.3125 82.9375 C32.3225 82.4425 32.3225 82.4425 31.3125 81.9375 C31.044375 82.700625 30.77625 83.46375 30.5 84.25 C29.36825888 86.81130884 28.40026599 88.13442938 26.3125 89.9375 C28.92159091 83.22840909 28.92159091 83.22840909 30.3125 80.9375 C31.3025 80.6075 32.2925 80.2775 33.3125 79.9375 C33.3125 78.6175 33.3125 77.2975 33.3125 75.9375 C32.33502987 74.76943232 32.33502987 74.76943232 30.5625 74.625 C27.52935232 73.69820487 25.66154331 72.03259268 23.3125 69.9375 C22.8175 68.9475 22.8175 68.9475 22.3125 67.9375 C20.36154906 66.6817442 20.36154906 66.6817442 18.3125 67.5 C17.3225 67.7165625 17.3225 67.7165625 16.3125 67.9375 C15.6525 67.2775 14.9925 66.6175 14.3125 65.9375 C14.6875 63.8125 14.6875 63.8125 15.3125 61.9375 C14.6525 61.9375 13.9925 61.9375 13.3125 61.9375 C13.06757813 61.05835938 12.82265625 60.17921875 12.5703125 59.2734375 C11.21001043 54.4767818 9.76855161 49.70586057 8.3125 44.9375 C7.94237793 43.72143066 7.57225586 42.50536133 7.19091797 41.25244141 C6.15869995 37.88189518 5.09805832 34.52112069 4.02264404 31.16412354 C3.59246121 29.80968208 3.16974459 28.45284557 2.75469971 27.09368896 C2.16038665 25.15370548 1.53569898 23.22310871 0.91015625 21.29296875 C0.55445557 20.16528076 0.19875488 19.03759277 -0.16772461 17.87573242 C-2.04804917 14.24043827 -4.24621821 13.04866449 -7.6875 10.9375 C-8.875 8 -8.875 8 -8.6875 4.9375 C-6.00707137 1.00062045 -4.82850214 -0.08183902 0 0 Z " fill="#2550FE" transform="translate(270.6875,419.0625)"/>
<path d="M0 0 C5.56292458 5.29266104 9.44560142 12.76975311 9.80775452 20.50653076 C9.80553391 21.47471741 9.80331329 22.44290405 9.80102539 23.44042969 C9.80094986 24.54126892 9.80087433 25.64210815 9.80079651 26.77630615 C9.79563522 27.95871887 9.79047394 29.14113159 9.78515625 30.359375 C9.7837413 31.57449768 9.78232635 32.78962036 9.78086853 34.04156494 C9.77526988 37.92356831 9.7627176 41.80551406 9.75 45.6875 C9.74498483 48.31900958 9.74042195 50.95052007 9.73632812 53.58203125 C9.72530088 60.03387638 9.70803714 66.48567842 9.6875 72.9375 C5.7275 72.9375 1.7675 72.9375 -2.3125 72.9375 C-2.3125 70.6275 -2.3125 68.3175 -2.3125 65.9375 C-3.43269531 66.50339844 -4.55289063 67.06929687 -5.70703125 67.65234375 C-7.17963422 68.39333506 -8.65229341 69.13421466 -10.125 69.875 C-10.86298828 70.24818359 -11.60097656 70.62136719 -12.36132812 71.00585938 C-13.42963867 71.54243164 -13.42963867 71.54243164 -14.51953125 72.08984375 C-15.1741333 72.41976318 -15.82873535 72.74968262 -16.50317383 73.08959961 C-22.86456547 76.07072404 -30.54396041 76.06856908 -37.21484375 74.06640625 C-43.011185 71.40793395 -46.14964335 68.44699223 -49.3125 62.9375 C-51.3434276 56.84471719 -51.42605753 49.47498609 -48.75 43.5625 C-42.41610172 32.90301265 -30.15287835 28.80022051 -18.80859375 25.71875 C-13.99306672 24.64265457 -9.23702088 24.13850085 -4.3125 23.9375 C-4.97677933 18.83147233 -5.4866208 14.9751431 -8.75 10.875 C-14.6122924 6.44253502 -22.30552606 7.27973071 -29.3125 7.9375 C-32.4702136 9.0308398 -35.22856804 10.31330167 -38.140625 11.94140625 C-40.3125 12.9375 -40.3125 12.9375 -43.3125 11.9375 C-47.3125 6.56607143 -47.3125 6.56607143 -47.3125 3.9375 C-33.90041598 -5.92917656 -14.20235215 -11.31916788 0 0 Z " fill="#244FFE" transform="translate(456.3125,453.0625)"/>
<path d="M0 0 C6.51769863 4.92801604 10.29478689 10.75140092 12.25 18.75 C13.16252885 28.05779427 13.26771383 37.51463738 7.79296875 45.52734375 C3.5628831 50.51771248 -0.24039146 54.43307093 -6.97265625 55.2421875 C-13.34332751 55.54012811 -18.23488572 54.72661862 -23.4375 50.9375 C-29.4086839 45.37344228 -31.98175047 38.29243995 -32.82421875 30.2421875 C-33.1115677 20.43268895 -31.7051457 12.77529627 -25.5625 5 C-18.65788416 -2.22853609 -9.36142203 -2.89353045 0 0 Z " fill="#FCFDFE" transform="translate(645.4375,461.0625)"/>
<path d="M0 0 C6.48238202 6.48238202 8.41448791 13.07369181 8.6875 22 C8.46376603 32.39704936 7.17733698 42.88790896 -0.625 50.375 C-6.29951872 54.56333524 -12.72733438 55.39652928 -19.625 54.375 C-24.6577022 52.4091007 -29.76976258 50.23023742 -33.625 46.375 C-33.91093118 43.58872801 -34.07409147 40.90678903 -34.13671875 38.11328125 C-34.15523392 37.28926315 -34.17374908 36.46524506 -34.19282532 35.61625671 C-34.22489967 33.86870518 -34.25053248 32.12102549 -34.27026367 30.37329102 C-34.29828709 28.59129332 -34.34595644 26.80949002 -34.41381836 25.02856445 C-34.97516046 10.25387562 -34.97516046 10.25387562 -31.68481445 5.67504883 C-29.39351036 3.87714897 -27.26229248 2.59260711 -24.625 1.375 C-23.573125 0.735625 -22.52125 0.09625 -21.4375 -0.5625 C-14.38440571 -2.52811644 -6.76139296 -3.03096926 0 0 Z " fill="#FDFDFE" transform="translate(568.625,461.625)"/>
<path d="M0 0 C4.76869917 -1.41559585 9.43571214 -2.34034171 14 0 C19.09764877 5.56505497 22.35041379 12.65432145 25.67675781 19.36767578 C26.83189155 21.66558204 28.05822308 23.87745296 29.3671875 26.08984375 C31 29 31 29 31 31 C31.66 31 32.32 31 33 31 C33.40206665 29.68660645 33.40206665 29.68660645 33.81225586 28.34667969 C34.95401143 25.12958095 36.30745158 22.40838995 38.00390625 19.453125 C38.57947266 18.44378906 39.15503906 17.43445313 39.74804688 16.39453125 C40.34681641 15.35683594 40.94558594 14.31914062 41.5625 13.25 C42.75155302 11.17201857 43.9403674 9.09390056 45.12890625 7.015625 C45.65556885 6.10071289 46.18223145 5.18580078 46.72485352 4.24316406 C47.51797108 2.84795744 48.28227624 1.43544752 49 0 C53.62 0 58.24 0 63 0 C57.21422265 12.21441886 50.55411898 24.42094333 42.5703125 35.3515625 C40.78652196 37.75435011 40.78652196 37.75435011 41.20385742 39.83276367 C42.21261383 42.57877122 43.60639664 44.84905922 45.16796875 47.32421875 C45.81443359 48.35353516 46.46089844 49.38285156 47.12695312 50.44335938 C47.80693359 51.51392578 48.48691406 52.58449219 49.1875 53.6875 C49.84814453 54.73873047 50.50878906 55.78996094 51.18945312 56.87304688 C54.68034981 62.41092543 58.23016139 67.88995101 61.9621582 73.26879883 C63 75 63 75 63 77 C58.53009999 77.60494887 54.45588631 77.79344202 50 77 C46.61769666 74.36418158 45.02033432 70.72760031 43 67 C41.47229354 64.48411753 39.91210787 61.99087481 38.34204102 59.5012207 C37.24427454 57.75875737 36.15865254 56.00858005 35.08569336 54.25073242 C34.58690674 53.4435376 34.08812012 52.63634277 33.57421875 51.8046875 C33.12651123 51.07233887 32.67880371 50.33999023 32.2175293 49.58544922 C31.61485229 48.80065186 31.61485229 48.80065186 31 48 C30.34 48 29.68 48 29 48 C28.59160889 48.73637695 28.18321777 49.47275391 27.76245117 50.23144531 C26.23844143 52.976091 24.71178562 55.71924289 23.18334961 58.46142578 C22.52376444 59.6460595 21.86522135 60.83127408 21.20776367 62.01708984 C20.25977753 63.72647893 19.30766557 65.43357785 18.35546875 67.140625 C17.78465576 68.16704102 17.21384277 69.19345703 16.62573242 70.25097656 C13.83241338 74.97432427 13.83241338 74.97432427 12 77 C8.64453125 77.390625 8.64453125 77.390625 4.8125 77.25 C3.54019531 77.21390625 2.26789062 77.1778125 0.95703125 77.140625 C-0.01878906 77.09421875 -0.99460937 77.0478125 -2 77 C2.25717194 68.94934808 6.88834898 61.19841007 11.75 53.5 C12.42160156 52.43007813 13.09320312 51.36015625 13.78515625 50.2578125 C18.56181319 42.65728022 18.56181319 42.65728022 21 39 C20.68794856 34.9066194 18.12709039 31.36787244 16.125 27.875 C15.73513916 27.18720459 15.34527832 26.49940918 14.94360352 25.79077148 C11.25411056 19.3347017 7.37948376 12.99300763 3.45556641 6.67724609 C3.00487793 5.94973145 2.55418945 5.2222168 2.08984375 4.47265625 C1.68628662 3.82562744 1.28272949 3.17859863 0.86694336 2.51196289 C0 1 0 1 0 0 Z " fill="#234EFE" transform="translate(676,449)"/>
<path d="M0 0 C0 0.99 0 1.98 0 3 C-0.33 3.33 -0.66 3.66 -1 4 C-0.01 4.33 0.98 4.66 2 5 C0.02701025 10.91896926 -2.03642899 16.80723951 -4.0925293 22.69775391 C-4.65676216 24.31855803 -5.21827833 25.94031039 -5.77709961 27.56298828 C-6.58280595 29.90121869 -7.3978281 32.23601358 -8.21484375 34.5703125 C-8.46386948 35.29944855 -8.7128952 36.02858459 -8.96946716 36.77981567 C-10.77217978 41.88608989 -10.77217978 41.88608989 -13 43 C-14.32 40.03 -15.64 37.06 -17 34 C-16.814375 34.78375 -16.62875 35.5675 -16.4375 36.375 C-16 39 -16 39 -17 41 C-16.814375 41.804375 -16.62875 42.60875 -16.4375 43.4375 C-16 46 -16 46 -18 49 C-17.8453125 50.8871875 -17.8453125 50.8871875 -17.6875 52.8125 C-17.59513627 55.5834118 -17.73957964 56.65934202 -19.4453125 58.890625 C-21.25257184 60.50884047 -22.83807878 61.89357779 -25 63 C-29.32965506 61.55678165 -30.24454011 58.29179837 -32.1875 54.4375 C-32.55552734 53.72658203 -32.92355469 53.01566406 -33.30273438 52.28320312 C-34.21051032 50.52659773 -35.10639707 48.76385756 -36 47 C-34.63610475 49.62035018 -33.28367827 52.24556999 -31.9375 54.875 C-31.54755859 55.62136719 -31.15761719 56.36773437 -30.75585938 57.13671875 C-30.39169922 57.85214844 -30.02753906 58.56757813 -29.65234375 59.3046875 C-29.31195068 59.96452637 -28.97155762 60.62436523 -28.62084961 61.30419922 C-28.41596924 61.86381348 -28.21108887 62.42342773 -28 63 C-29.61543526 66.23087053 -32.1160996 67.90775853 -35 70 C-38.8465981 69.59271314 -41.23358533 67.79615919 -43.87109375 65.0859375 C-46.22779554 60.73133974 -44.74467919 55.6914789 -44 51 C-44 50.01 -44 49.02 -44 48 C-44.33 48 -44.66 48 -45 48 C-45.495 48.495 -45.495 48.495 -46 49 C-49.37996087 49.4309604 -52.62741756 49.50401073 -56 49 C-58.625 46.5 -58.625 46.5 -60 44 C-58.57250019 40.20950293 -56.83763458 36.72877544 -54.875 33.1875 C-54.33617187 32.21167969 -53.79734375 31.23585938 -53.2421875 30.23046875 C-52.83226562 29.49441406 -52.42234375 28.75835937 -52 28 C-51.34 28 -50.68 28 -50 28 C-47.69 32.29 -45.38 36.58 -43 41 C-43.495 38.525 -43.495 38.525 -44 36 C-44 35.01 -44 34.02 -44 33 C-44.515625 32.236875 -45.03125 31.47375 -45.5625 30.6875 C-47.45502598 27.14929925 -47.00333309 25.86870779 -46 22 C-44.68552429 19.17093437 -43.14473207 16.49907557 -41.5625 13.8125 C-41.15451172 13.10158203 -40.74652344 12.39066406 -40.32617188 11.65820312 C-38.62468307 8.70766054 -36.89048302 5.83572453 -35 3 C-34.01 3 -33.02 3 -32 3 C-30.5393715 5.64738916 -30 6.89448334 -30 10 C-29.34 10 -28.68 10 -28 10 C-27.67 8.68 -27.34 7.36 -27 6 C-26.60167969 6.90492188 -26.60167969 6.90492188 -26.1953125 7.828125 C-25.84210938 8.62734375 -25.48890625 9.4265625 -25.125 10.25 C-24.77695312 11.03890625 -24.42890625 11.8278125 -24.0703125 12.640625 C-23.38421211 14.15305067 -22.65294319 15.64624372 -21.8671875 17.109375 C-21 19 -21 19 -21 22 C-16.62789605 17.6956806 -12.43616718 13.23460299 -8.25 8.75 C-6.90116399 7.3071773 -5.55221197 5.86446305 -4.203125 4.421875 C-3.61176758 3.78862305 -3.02041016 3.15537109 -2.41113281 2.50292969 C-1.61817728 1.65839088 -0.8191533 0.8191533 0 0 Z " fill="#1D47FE" transform="translate(378,432)"/>
<path d="M0 0 C4.29 0 8.58 0 13 0 C13 25.41 13 50.82 13 77 C8.71 77 4.42 77 0 77 C0 51.59 0 26.18 0 0 Z " fill="#214CFE" transform="translate(488,449)"/>
<path d="M0 0 C3.29690593 0.76082445 4.48226263 1.81068444 6.4375 4.5625 C6.9375 7.5625 6.9375 7.5625 6.4375 10.5625 C4.20543569 13.41030619 2.88757001 14.41247666 -0.5625 15.5625 C-1.57992465 17.83378232 -2.39344524 19.98667616 -3.15625 22.34375 C-3.38904663 23.03126343 -3.62184326 23.71877686 -3.86169434 24.42712402 C-4.60650548 26.6353361 -5.33465104 28.84864614 -6.0625 31.0625 C-6.55229848 32.52380227 -7.04317206 33.98474466 -7.53515625 35.4453125 C-8.4758278 38.24328874 -9.40753884 41.04397244 -10.33105469 43.84765625 C-11.3353701 46.87732782 -12.37275234 49.89200702 -13.421875 52.90625 C-14.52484653 56.44180259 -14.8496373 58.13013387 -13.5625 61.5625 C-13.2325 61.8925 -12.9025 62.2225 -12.5625 62.5625 C-12.75 66 -12.75 66 -13.5625 69.5625 C-15.5425 70.5525 -15.5425 70.5525 -17.5625 71.5625 C-17.5625 77.8325 -17.5625 84.1025 -17.5625 90.5625 C-17.8925 90.5625 -18.2225 90.5625 -18.5625 90.5625 C-18.64935287 87.27099875 -18.70283895 83.9797904 -18.75 80.6875 C-18.77513672 79.75035156 -18.80027344 78.81320312 -18.82617188 77.84765625 C-18.83583984 76.95175781 -18.84550781 76.05585938 -18.85546875 75.1328125 C-18.8711792 74.30539551 -18.88688965 73.47797852 -18.90307617 72.62548828 C-18.73449097 71.60430908 -18.73449097 71.60430908 -18.5625 70.5625 C-17.5725 69.9025 -16.5825 69.2425 -15.5625 68.5625 C-15.5625 67.9025 -15.5625 67.2425 -15.5625 66.5625 C-15.8925 67.2225 -16.2225 67.8825 -16.5625 68.5625 C-17.5525 68.0675 -17.5525 68.0675 -18.5625 67.5625 C-18.5625 66.2425 -18.5625 64.9225 -18.5625 63.5625 C-19.5525 63.5625 -20.5425 63.5625 -21.5625 63.5625 C-23.06071059 66.93347383 -23.5625 68.76692119 -23.5625 72.5625 C-25.68851478 75.64155588 -27.43433643 77.47705762 -30.5625 79.5625 C-29.81660853 84.81242842 -27.39278962 88.62336629 -24.7421875 93.13671875 C-24.15824219 94.33748047 -24.15824219 94.33748047 -23.5625 95.5625 C-23.8925 96.2225 -24.2225 96.8825 -24.5625 97.5625 C-27.7364782 96.62364258 -29.24614643 96.024923 -31.14453125 93.25 C-31.55058594 92.363125 -31.95664062 91.47625 -32.375 90.5625 C-33.00341797 89.2321875 -33.00341797 89.2321875 -33.64453125 87.875 C-34.5625 85.5625 -34.5625 85.5625 -34.5625 83.5625 C-36.2125 84.5525 -37.8625 85.5425 -39.5625 86.5625 C-39.18738281 86.99820313 -38.81226563 87.43390625 -38.42578125 87.8828125 C-35.10390223 91.74857599 -31.81607073 95.63907648 -28.5625 99.5625 C-28.8925 100.2225 -29.2225 100.8825 -29.5625 101.5625 C-33.24319887 100.02606148 -35.55025204 97.78099055 -38.3125 94.9375 C-39.11171875 94.12023437 -39.9109375 93.30296875 -40.734375 92.4609375 C-41.33765625 91.83445312 -41.9409375 91.20796875 -42.5625 90.5625 C-47.8311093 92.54815677 -51.39495004 94.81117506 -54.5625 99.5625 C-54.8925 98.5725 -55.2225 97.5825 -55.5625 96.5625 C-58.0375 97.0575 -58.0375 97.0575 -60.5625 97.5625 C-59.881875 97.02625 -59.20125 96.49 -58.5 95.9375 C-57.0459375 94.761875 -57.0459375 94.761875 -55.5625 93.5625 C-54.95019531 93.08039063 -54.33789062 92.59828125 -53.70703125 92.1015625 C-52.76923828 91.33972656 -52.76923828 91.33972656 -51.8125 90.5625 C-51.21953125 90.088125 -50.6265625 89.61375 -50.015625 89.125 C-48.26041728 87.23767987 -47.67782105 86.14468883 -47.5625 83.5625 C-48.92404485 81.85931233 -48.92404485 81.85931233 -50.875 80.375 C-55.09356101 76.49191104 -55.77284413 73.06874902 -56.5625 67.5625 C-56.8925 66.5725 -57.2225 65.5825 -57.5625 64.5625 C-60.2025 64.5625 -62.8425 64.5625 -65.5625 64.5625 C-65.8925 63.9025 -66.2225 63.2425 -66.5625 62.5625 C-62.88663723 61.33721241 -59.86906554 61.62370177 -56.03515625 61.8203125 C-53.06346304 61.51046771 -51.76816493 60.51740488 -49.5625 58.5625 C-50.0884375 59.490625 -50.0884375 59.490625 -50.625 60.4375 C-50.934375 61.13875 -51.24375 61.84 -51.5625 62.5625 C-51.2325 63.2225 -50.9025 63.8825 -50.5625 64.5625 C-50.80683987 66.4827239 -51.08227147 68.39905499 -51.375 70.3125 C-51.8309259 74.67619153 -51.8309259 74.67619153 -50.47265625 78.72265625 C-48.06600673 81.31301948 -46.50495207 82.49518199 -42.9375 82.75 C-39.93266232 81.24758116 -38.58038972 79.20619097 -36.5625 76.5625 C-37.15160156 75.51449219 -37.74070312 74.46648437 -38.34765625 73.38671875 C-39.10730087 72.00810443 -39.86638656 70.62918202 -40.625 69.25 C-41.20991211 68.21456055 -41.20991211 68.21456055 -41.80664062 67.15820312 C-42.80287483 65.33324312 -43.69002842 63.44976123 -44.5625 61.5625 C-44.2325 60.5725 -43.9025 59.5825 -43.5625 58.5625 C-40.5925 64.1725 -37.6225 69.7825 -34.5625 75.5625 C-32.5825 74.5725 -32.5825 74.5725 -30.5625 73.5625 C-29.82 73.19125 -29.0775 72.82 -28.3125 72.4375 C-26.13538892 70.51735658 -26.13538892 70.51735658 -26.4375 66.6875 C-26.49744141 65.62789062 -26.49744141 65.62789062 -26.55859375 64.546875 C-26.5625 62.5625 -26.5625 62.5625 -25.5 59.9375 C-24.27817481 56.84220953 -24.90713919 54.7664862 -25.5625 51.5625 C-25.2325 51.2325 -24.9025 50.9025 -24.5625 50.5625 C-24.84854898 48.88707024 -25.18031233 47.21864657 -25.5625 45.5625 C-22.85641583 46.91554209 -22.60066953 48.37216544 -21.4375 51.125 C-21.08429688 51.95128906 -20.73109375 52.77757812 -20.3671875 53.62890625 C-19.96886719 54.58603516 -19.96886719 54.58603516 -19.5625 55.5625 C-19.20945801 54.51271973 -18.85641602 53.46293945 -18.49267578 52.38134766 C-17.18287767 48.49178607 -15.86533054 44.60488706 -14.54541016 40.71875 C-13.9749271 39.03554901 -13.40655595 37.35163072 -12.84033203 35.66699219 C-12.02668859 33.24743605 -11.20551691 30.83055036 -10.3828125 28.4140625 C-10.13064972 27.6588028 -9.87848694 26.90354309 -9.61868286 26.12539673 C-7.79024341 20.79024341 -7.79024341 20.79024341 -5.5625 18.5625 C-6.8825 18.2325 -8.2025 17.9025 -9.5625 17.5625 C-8.9025 16.9025 -8.2425 16.2425 -7.5625 15.5625 C-7.50997606 13.28656939 -7.50997606 13.28656939 -7.75 10.75 C-7.83069739 6.76700724 -7.75851027 5.84251467 -5.375 2.4375 C-2.5625 0.5625 -2.5625 0.5625 0 0 Z " fill="#1842FE" transform="translate(385.5625,418.4375)"/>
<path d="M0 0 C0.14539953 3.41621788 0.23409725 6.83163991 0.3125 10.25 C0.35439453 11.21808594 0.39628906 12.18617188 0.43945312 13.18359375 C0.56320122 20.36098323 0.56320122 20.36098323 -2.234375 23.53515625 C-3.60335938 24.26025391 -3.60335938 24.26025391 -5 25 C-5.76441406 25.40605469 -6.52882813 25.81210937 -7.31640625 26.23046875 C-8.05761719 26.54628906 -8.79882812 26.86210938 -9.5625 27.1875 C-10.30628906 27.51105469 -11.05007813 27.83460938 -11.81640625 28.16796875 C-16.81264686 30.07172412 -21.67807257 30.71148762 -27 30 C-29.87029869 28.20606332 -31.49131638 27.01736724 -33 24 C-33.59850619 19.85591282 -33.82845399 15.84022546 -32.08203125 11.9609375 C-26.58633471 4.64408638 -16.72150189 2.0973406 -8.1328125 0.26171875 C-5.41143677 -0.07222296 -2.73869305 -0.04291399 0 0 Z " fill="#FBFCFE" transform="translate(452,487)"/>
<path d="M0 0 C3.77641322 1.88820661 5.5781679 3.39178003 8.4375 6.375 C10.9199822 8.94350881 13.14735947 11.10525676 16.0625 13.1875 C18 15 18 15 18.40625 17.65625 C17.86444405 22.11572977 16.00721443 24.71241029 13.4375 28.3125 C12.76001709 29.29391968 12.76001709 29.29391968 12.06884766 30.29516602 C8.55972144 35.33494796 4.8899993 40.24698761 1 45 C-2.05300315 41.37220305 -3.84638399 37.35934519 -5.75 33.0625 C-6.07871094 32.35931641 -6.40742188 31.65613281 -6.74609375 30.93164062 C-8.56584018 26.83529158 -9.38075118 24.43054225 -8 20 C-7.91291244 18.48109056 -7.86970819 16.9588948 -7.875 15.4375 C-7.87242187 14.69371094 -7.86984375 13.94992187 -7.8671875 13.18359375 C-7.95328978 10.66780196 -7.95328978 10.66780196 -9 7 C-6.03 4.69 -3.06 2.38 0 0 Z " fill="#FAFBFE" transform="translate(341,508)"/>
<path d="M0 0 C2.77561132 1.35752626 5.25328277 2.80047587 7.75 4.625 C8.67039062 5.29402344 8.67039062 5.29402344 9.609375 5.9765625 C10.06828125 6.31429687 10.5271875 6.65203125 11 7 C10.4740625 8.2684375 10.4740625 8.2684375 9.9375 9.5625 C8.70957434 14.06489408 9.19859287 17.74449333 10.7578125 22.1328125 C11.13784036 26.63185198 9.28148722 30.21088642 7.5625 34.3125 C7.22412109 35.14845703 6.88574219 35.98441406 6.53710938 36.84570312 C5.70279354 38.9021154 4.85689595 40.95291783 4 43 C0.97281577 41.68423544 -0.71066752 40.4539347 -2.62109375 37.76953125 C-3.08193359 37.13080078 -3.54277344 36.49207031 -4.01757812 35.83398438 C-4.48615234 35.16689453 -4.95472656 34.49980469 -5.4375 33.8125 C-5.90220703 33.16474609 -6.36691406 32.51699219 -6.84570312 31.84960938 C-7.7772842 30.54903385 -8.69973333 29.24186724 -9.61279297 27.92822266 C-10.54042037 26.6388173 -11.51495612 25.38195417 -12.53173828 24.16162109 C-14.84928389 21.30690124 -16.05906753 19.7335806 -15.7578125 15.9921875 C-13.38429406 11.95193167 -10.37969213 9.19247311 -6.875 6.125 C-5.88693359 5.23554687 -5.88693359 5.23554687 -4.87890625 4.328125 C-3.26182171 2.87509252 -1.63213396 1.43610743 0 0 Z " fill="#FAFBFE" transform="translate(311,509)"/>
<path d="M0 0 C2.47157109 3.70735663 2.22699255 5.61147745 2 10 C1.7421875 10.7321875 1.484375 11.464375 1.21875 12.21875 C0.87538142 16.58443629 3.09943877 19.47095304 5.3125 23.125 C5.72951172 23.84042969 6.14652344 24.55585938 6.57617188 25.29296875 C8.31148606 28.25435021 10.09535582 31.14303374 12 34 C15.35352369 29.18376917 18.51560284 24.27858077 21.4375 19.1875 C21.95183594 18.29417969 22.46617187 17.40085937 22.99609375 16.48046875 C24.1337529 13.66952103 23.99841582 12.78294065 23 10 C22.4488189 3.82677165 22.4488189 3.82677165 24.625 0.5625 C27.7370662 -1.48491197 29.34394496 -1.68551032 33 -1 C35.4375 1.125 35.4375 1.125 37 4 C36.82322589 6.8873105 36.23310497 9.25406408 35.375 12 C34.851695 14.79095999 35.52662388 17.21891528 36 20 C35.505 21.485 35.505 21.485 35 23 C34.34 22.67 33.68 22.34 33 22 C32.26924352 19.6859378 31.59861742 17.35171131 31 15 C30.01 15 29.02 15 28 15 C27.76410156 15.65742188 27.52820313 16.31484375 27.28515625 16.9921875 C25.6235001 20.88116997 23.54762842 24.46477724 21.4375 28.125 C20.62126499 29.54287303 19.80736435 30.96209312 18.99609375 32.3828125 C18.45746704 33.31697998 18.45746704 33.31697998 17.90795898 34.27001953 C16.85804318 36.15775848 16.85804318 36.15775848 16 39 C14.02 39 12.04 39 10 39 C9.68546875 38.39671875 9.3709375 37.7934375 9.046875 37.171875 C8.61890625 36.37265625 8.1909375 35.5734375 7.75 34.75 C7.33234375 33.96109375 6.9146875 33.1721875 6.484375 32.359375 C5.08139908 29.93573539 5.08139908 29.93573539 3.03125 28.03125 C0.77958445 25.77958445 -0.65731547 23.50100056 -2.25 20.75 C-2.77078125 19.85796875 -3.2915625 18.9659375 -3.828125 18.046875 C-4.21484375 17.37140625 -4.6015625 16.6959375 -5 16 C-5.44730469 17.13179688 -5.89460938 18.26359375 -6.35546875 19.4296875 C-6.96521559 20.91184137 -7.57594423 22.3935916 -8.1875 23.875 C-8.62545898 24.99455078 -8.62545898 24.99455078 -9.07226562 26.13671875 C-11.3871322 31.66252929 -11.3871322 31.66252929 -14.73828125 33.5078125 C-15.85783203 33.75144531 -15.85783203 33.75144531 -17 34 C-15.17457977 28.27481836 -13.11345542 22.7552747 -10.671875 17.26171875 C-9.68908201 13.95336329 -10.49849464 12.00301071 -12 9 C-12.375 6.125 -12.375 6.125 -12 3 C-8.27244001 -1.40529817 -5.41913162 -1.5337165 0 0 Z " fill="#1B44FE" transform="translate(315,420)"/>
<path d="M0 0 C0.33 0 0.66 0 1 0 C0.67 2.31 0.34 4.62 0 7 C0.66 7 1.32 7 2 7 C2.33 5.68 2.66 4.36 3 3 C3.39445312 3.85722656 3.78890625 4.71445312 4.1953125 5.59765625 C6.0981204 9.18498457 8.35542266 12.27674664 10.875 15.4375 C13.6640244 18.98845353 16.43085325 22.53473688 19 26.25 C20.71230177 29.0479497 20.71230177 29.0479497 23 30 C23.11214844 29.30777344 23.22429687 28.61554687 23.33984375 27.90234375 C24.34582066 23.47961685 26.20020372 19.43180582 27.94140625 15.25390625 C29.01435123 11.95588718 29.20239906 9.44078405 29 6 C29.66 6.33 30.32 6.66 31 7 C32.94614664 14.41099591 30.72395001 19.73074531 28 26.6875 C27.2179036 28.70791571 26.44661149 30.73255534 25.6875 32.76171875 C25.34074219 33.64819092 24.99398437 34.53466309 24.63671875 35.44799805 C23.90925031 38.36372951 24.22681002 40.1260215 25 43 C25.31602224 45.82865808 25.23314672 48.10898061 25 51 C22.81246717 53.6923481 21.41576045 53.93936827 18 54.4375 C15 54 15 54 12.5625 52.4375 C11 50 11 50 11.1875 46.5625 C12 43 12 43 12.73608398 40.67260742 C13.10624803 36.92405441 11.81793533 34.96633755 10.03515625 31.67578125 C9.56691689 30.79456856 9.56691689 30.79456856 9.08921814 29.89555359 C8.0935026 28.02709735 7.07903794 26.16969676 6.0625 24.3125 C5.05313001 22.44289605 4.04780432 20.57124363 3.04649353 18.6973114 C2.13893737 17.00285532 1.22023907 15.31438118 0.30102539 13.6262207 C-1 11 -1 11 -1 9 C-2.093125 9.0825 -3.18625 9.165 -4.3125 9.25 C-8 9 -8 9 -10 7.1875 C-11 5 -11 5 -10 2 C-9.01 3.65 -8.02 5.3 -7 7 C-3.98352894 5.78379415 -3.98352894 5.78379415 -1 4 C-0.03955898 1.92309422 -0.03955898 1.92309422 0 0 Z " fill="#1740FE" transform="translate(292,522)"/>
<path d="M0 0 C2.62113708 0 4.50935112 0.31292445 7 1 C7.33 2.65 7.66 4.3 8 6 C8.66 4.68 9.32 3.36 10 2 C9.67 3.65 9.34 5.3 9 7 C8.01 7.33 7.02 7.66 6 8 C6.14070156 11.16691607 6.28851269 14.33346378 6.4375 17.5 C6.47681641 18.386875 6.51613281 19.27375 6.55664062 20.1875 C6.38158098 29.87807134 6.38158098 29.87807134 10.0625 38.0625 C12 40 12 40 12.4375 43.5625 C12 47 12 47 10.875 48.9375 C8.214973 50.44484863 5.99793795 50.19986253 3 50 C3 49.34 3 48.68 3 48 C2.2265625 47.38125 2.2265625 47.38125 1.4375 46.75 C0.963125 46.1725 0.48875 45.595 0 45 C0.3125 41.8125 0.3125 41.8125 1 39 C0.34 39 -0.32 39 -1 39 C-1 41.97 -1 44.94 -1 48 C-1.33 48 -1.66 48 -2 48 C-2.28875 46.9275 -2.5775 45.855 -2.875 44.75 C-3.73358367 41.88805444 -4.6442863 39.61459071 -6 37 C-6 36.34 -6 35.68 -6 35 C-7.61403455 33.24185523 -9.29114592 31.54113273 -11 29.875 C-11.928125 28.96492188 -12.85625 28.05484375 -13.8125 27.1171875 C-14.534375 26.41851562 -15.25625 25.71984375 -16 25 C-14.6875 23 -14.6875 23 -13 21 C-12.01 21 -11.02 21 -10 21 C-9.61328125 21.84304688 -9.2265625 22.68609375 -8.828125 23.5546875 C-8.04695313 25.19824219 -8.04695313 25.19824219 -7.25 26.875 C-6.73953125 27.96554687 -6.2290625 29.05609375 -5.703125 30.1796875 C-3.97462191 33.04202519 -3.10000819 33.93521458 0 35 C-0.85734353 30.33956849 -3.42417514 26.67557718 -5.8203125 22.65625 C-7 20 -7 20 -6.87109375 17.81640625 C-5.42019267 14.79098471 -2.54817009 13.11443901 0 11 C0 10.01 0 9.02 0 8 C0 5.33333333 0 2.66666667 0 0 Z " fill="#204CFE" transform="translate(361,481)"/>
<path d="M0 0 C0.99 0 1.98 0 3 0 C4.56699388 3.57278172 6.099046 7.15952 7.625 10.75 C8.07101562 11.76578125 8.51703125 12.7815625 8.9765625 13.828125 C9.3890625 14.8078125 9.8015625 15.7875 10.2265625 16.796875 C10.61408691 17.69760742 11.00161133 18.59833984 11.40087891 19.52636719 C12 22 12 22 11.28710938 24.13671875 C10.02867626 25.95848687 8.76079661 27.46815651 7.1796875 29.015625 C6.64472656 29.54414063 6.10976563 30.07265625 5.55859375 30.6171875 C5.00300781 31.15601563 4.44742187 31.69484375 3.875 32.25 C3.03001953 33.08144531 3.03001953 33.08144531 2.16796875 33.9296875 C0.78313972 35.29104485 -0.60783204 36.64614859 -2 38 C-5.99790871 36.66736376 -6.61818041 34.89342837 -8.75 31.3125 C-9.38421875 30.27738281 -10.0184375 29.24226563 -10.671875 28.17578125 C-12.26939834 24.35582103 -12.23524435 22.92719121 -11 19 C-9.66901963 16.1785653 -8.14493676 13.49942314 -6.5625 10.8125 C-6.15451172 10.10158203 -5.74652344 9.39066406 -5.32617188 8.65820312 C-3.62468307 5.70766054 -1.89048302 2.83572453 0 0 Z " fill="#FAFBFE" transform="translate(343,435)"/>
<path d="M0 0 C3.29690593 0.76082445 4.48226263 1.81068444 6.4375 4.5625 C6.9375 7.5625 6.9375 7.5625 6.4375 10.5625 C4.20543569 13.41030619 2.88757001 14.41247666 -0.5625 15.5625 C-1.57992465 17.83378232 -2.39344524 19.98667616 -3.15625 22.34375 C-3.38904663 23.03126343 -3.62184326 23.71877686 -3.86169434 24.42712402 C-4.60650548 26.6353361 -5.33465104 28.84864614 -6.0625 31.0625 C-6.55229848 32.52380227 -7.04317206 33.98474466 -7.53515625 35.4453125 C-8.4758278 38.24328874 -9.40753884 41.04397244 -10.33105469 43.84765625 C-11.3353701 46.87732782 -12.37275234 49.89200702 -13.421875 52.90625 C-14.52484653 56.44180259 -14.8496373 58.13013387 -13.5625 61.5625 C-13.2325 61.8925 -12.9025 62.2225 -12.5625 62.5625 C-12.75 66 -12.75 66 -13.5625 69.5625 C-15.5425 70.5525 -15.5425 70.5525 -17.5625 71.5625 C-17.5625 77.8325 -17.5625 84.1025 -17.5625 90.5625 C-17.8925 90.5625 -18.2225 90.5625 -18.5625 90.5625 C-18.64935287 87.27099875 -18.70283895 83.9797904 -18.75 80.6875 C-18.77513672 79.75035156 -18.80027344 78.81320312 -18.82617188 77.84765625 C-18.84067383 76.50380859 -18.84067383 76.50380859 -18.85546875 75.1328125 C-18.8711792 74.30539551 -18.88688965 73.47797852 -18.90307617 72.62548828 C-18.79068604 71.94470215 -18.6782959 71.26391602 -18.5625 70.5625 C-17.0775 69.5725 -17.0775 69.5725 -15.5625 68.5625 C-15.5625 67.9025 -15.5625 67.2425 -15.5625 66.5625 C-16.0575 67.5525 -16.0575 67.5525 -16.5625 68.5625 C-17.2225 68.2325 -17.8825 67.9025 -18.5625 67.5625 C-18.5625 66.2425 -18.5625 64.9225 -18.5625 63.5625 C-19.5525 63.5625 -20.5425 63.5625 -21.5625 63.5625 C-22.2225 64.8825 -22.8825 66.2025 -23.5625 67.5625 C-24.6814783 62.21627036 -24.27056483 58.68669449 -22.5625 53.5625 C-21.5725 54.2225 -20.5825 54.8825 -19.5625 55.5625 C-19.20945801 54.51271973 -18.85641602 53.46293945 -18.49267578 52.38134766 C-17.18287767 48.49178607 -15.86533054 44.60488706 -14.54541016 40.71875 C-13.9749271 39.03554901 -13.40655595 37.35163072 -12.84033203 35.66699219 C-12.02668859 33.24743605 -11.20551691 30.83055036 -10.3828125 28.4140625 C-10.13064972 27.6588028 -9.87848694 26.90354309 -9.61868286 26.12539673 C-7.79024341 20.79024341 -7.79024341 20.79024341 -5.5625 18.5625 C-6.8825 18.2325 -8.2025 17.9025 -9.5625 17.5625 C-8.9025 16.9025 -8.2425 16.2425 -7.5625 15.5625 C-7.50997606 13.28656939 -7.50997606 13.28656939 -7.75 10.75 C-7.83069739 6.76700724 -7.75851027 5.84251467 -5.375 2.4375 C-2.5625 0.5625 -2.5625 0.5625 0 0 Z " fill="#1B43FE" transform="translate(385.5625,418.4375)"/>
<path d="M0 0 C3.4637328 4.07685332 6.1636813 8.37629715 8.8125 13 C9.44188477 14.04800781 9.44188477 14.04800781 10.08398438 15.1171875 C13.00469206 20.2175996 13.00469206 20.2175996 12.984375 23.60546875 C11.71687072 26.68872321 10.161945 29.45932736 8.4375 32.3125 C7.47650391 33.91544922 7.47650391 33.91544922 6.49609375 35.55078125 C6.00238281 36.35902344 5.50867188 37.16726563 5 38 C-0.29012124 33.59156563 -5.18808428 28.92440206 -10 24 C-3.7 3.7 -3.7 3.7 0 0 Z " fill="#FAFBFE" transform="translate(310,435)"/>
<path d="M0 0 C3.625 0.375 3.625 0.375 7 1 C5.02 1.99 5.02 1.99 3 3 C3.33 4.32 3.66 5.64 4 7 C7.27773504 6.24849977 7.27773504 6.24849977 9 3 C9.33 4.65 9.66 6.3 10 8 C10.33 7.34 10.66 6.68 11 6 C11.061875 6.5775 11.12375 7.155 11.1875 7.75 C12.33710978 10.93353478 14.25676162 12.10585921 17 14 C17.99 14.33 18.98 14.66 20 15 C20.33 14.34 20.66 13.68 21 13 C21 14.32 21 15.64 21 17 C21.2981424 18.34164079 21.62243192 19.67851173 22 21 C20.68 21 19.36 21 18 21 C16.94347254 23.56585239 15.97432233 26.08690902 15.1875 28.75 C13.59406162 33.11098925 11.33134016 36.99578979 9 41 C6.69 40.34 4.38 39.68 2 39 C2.33 38.34 2.66 37.68 3 37 C3.15344209 35.11527141 3.24959571 33.22572126 3.31640625 31.3359375 C3.35830078 30.21445312 3.40019531 29.09296875 3.44335938 27.9375 C3.48267578 26.761875 3.52199219 25.58625 3.5625 24.375 C3.60568359 23.19164062 3.64886719 22.00828125 3.69335938 20.7890625 C3.79967426 17.85949672 3.90170642 14.92984412 4 12 C3.38125 11.731875 2.7625 11.46375 2.125 11.1875 C0 10 0 10 -2 7 C-2.25 4.4375 -2.25 4.4375 -2 2 C-1.34 1.34 -0.68 0.68 0 0 Z " fill="#1E49FE" transform="translate(283,479)"/>
<path d="M0 0 C4.43406351 1.424663 7.07973897 3.61839306 10.375 6.875 C11.26960938 7.73867188 12.16421875 8.60234375 13.0859375 9.4921875 C14.03339844 10.73355469 14.03339844 10.73355469 15 12 C14.60708566 14.85867816 13.51981297 17.15399516 12.15234375 19.671875 C11.79462891 20.33574219 11.43691406 20.99960937 11.06835938 21.68359375 C10.50858398 22.70646484 10.50858398 22.70646484 9.9375 23.75 C9.56044922 24.44738281 9.18339844 25.14476562 8.79492188 25.86328125 C7.86726612 27.57768302 6.93416546 29.28913661 6 31 C2.07015542 30.13509831 -0.21200281 29.02033028 -3 26 C-3.1875 22.0625 -3.1875 22.0625 -2.98046875 20.09765625 C-2.85062244 17.88239282 -2.85062244 17.88239282 -4.13671875 15.671875 C-5.37234568 11.84758171 -4.16929486 9.82762361 -2.625 6.1875 C-2.14289063 5.02605469 -1.66078125 3.86460937 -1.1640625 2.66796875 C-0.77992188 1.78753906 -0.39578125 0.90710938 0 0 Z " fill="#F9FAFE" transform="translate(297,463)"/>
<path d="M0 0 C3 1 3 1 4.23828125 3.328125 C4.59277344 4.29234375 4.94726562 5.2565625 5.3125 6.25 C5.67988281 7.20390625 6.04726563 8.1578125 6.42578125 9.140625 C7.11036239 12.54955965 6.41217607 13.89626051 5 17 C5.103125 18.299375 5.20625 19.59875 5.3125 20.9375 C5.40602375 23.67047172 5.24265706 24.68388999 3.5546875 26.8828125 C1.74838838 28.50772593 0.16518696 29.89190646 -2 31 C-6.27599336 29.57466888 -7.26822586 26.47056527 -9.25 22.6875 C-9.62640625 22.01009766 -10.0028125 21.33269531 -10.390625 20.63476562 C-13.06812252 15.59969217 -13.06812252 15.59969217 -12.7668457 12.94750977 C-11.45239591 9.60928436 -8.58502687 7.55561769 -5.9375 5.25 C-5.36966797 4.74339844 -4.80183594 4.23679687 -4.21679688 3.71484375 C-2.8180135 2.46886864 -1.40989267 1.23339027 0 0 Z " fill="#FAFBFE" transform="translate(355,464)"/>
<path d="M0 0 C2 0 2 0 3.4453125 1.43359375 C3.99960937 2.09488281 4.55390625 2.75617188 5.125 3.4375 C8.42396812 7.32310471 11.79486379 11.13188854 15.203125 14.921875 C15.79609375 15.60765625 16.3890625 16.2934375 17 17 C17.59554688 17.64839844 18.19109375 18.29679687 18.8046875 18.96484375 C20 21 20 21 19.7421875 23.33203125 C19.31292969 24.55986328 19.31292969 24.55986328 18.875 25.8125 C18.57722656 26.68261719 18.27945312 27.55273438 17.97265625 28.44921875 C16.73935432 31.68354067 15.43766089 34.85083805 14 38 C13.34 38 12.68 38 12 38 C8.61921529 29.30826627 5.45153753 20.57664419 2.625 11.6875 C2.36251465 10.86983154 2.1000293 10.05216309 1.82958984 9.2097168 C1.58934082 8.44312744 1.3490918 7.67653809 1.1015625 6.88671875 C0.88838379 6.20826904 0.67520508 5.52981934 0.45556641 4.83081055 C0 3 0 3 0 0 Z " fill="#F8F9FD" transform="translate(275,437)"/>
<path d="M0 0 C2.8605891 1.35937085 4.85927699 2.64520469 7 5 C6.67 5.598125 6.34 6.19625 6 6.8125 C4.79212012 9.05386471 4.79212012 9.05386471 5 12 C2.58117153 14.62615662 -0.00947677 17.00879985 -2.625 19.4375 C-5.11775343 22.12704976 -6.52459935 24.66093537 -8 28 C-8.66 28 -9.32 28 -10 28 C-10 27.01 -10 26.02 -10 25 C-10.99 25.66 -11.98 26.32 -13 27 C-12.34 27.66 -11.68 28.32 -11 29 C-13.75 29.375 -13.75 29.375 -17 29 C-19.5 26.3125 -19.5 26.3125 -21 23 C-20.5625 20.1875 -20.5625 20.1875 -19 18 C-15.85691208 16.92473308 -13.35575631 17 -10 17 C-8.52479504 15.43232139 -8.52479504 15.43232139 -7.421875 13.28125 C-6.98359375 12.51425781 -6.5453125 11.74726562 -6.09375 10.95703125 C-5.6503125 10.14621094 -5.206875 9.33539063 -4.75 8.5 C-4.29109375 7.68917969 -3.8321875 6.87835938 -3.359375 6.04296875 C-2.22591687 4.03580331 -1.10706053 2.02180882 0 0 Z " fill="#264FFE" transform="translate(302,501)"/>
<path d="M0 0 C3.98540128 2.48147627 5.67879912 4.00070836 7.125 8.5 C6.97404424 12.72676136 5.9912799 14.09418524 3 17 C-0.10048928 18.55024464 -2.57894218 18.28992015 -6 18 C-8.75329021 16.20437595 -10.52627461 14.94745078 -12 12 C-12.43023798 8.12785818 -12.31669086 6.47503629 -10.125 3.1875 C-6.82949019 -0.20493657 -4.68335942 -0.54038763 0 0 Z " fill="#234EFE" transform="translate(497,414)"/>
<path d="M0 0 C0.66 0.33 1.32 0.66 2 1 C0.33706508 5.96945065 -1.33546655 10.93552376 -3.01708984 15.89868164 C-3.5881207 17.58853646 -4.15649001 19.27929304 -4.72216797 20.97094727 C-5.53440169 23.39840233 -6.35606379 25.82248334 -7.1796875 28.24609375 C-7.43185028 29.00651474 -7.68401306 29.76693573 -7.94381714 30.55039978 C-9.77225659 35.88612829 -9.77225659 35.88612829 -12 37 C-12.87216409 34.96595642 -13.72203505 32.92234514 -14.5625 30.875 C-15.27599609 29.16957031 -15.27599609 29.16957031 -16.00390625 27.4296875 C-17.10946945 23.62308167 -17.21946438 21.75413623 -16 18 C-13.92578125 15.25390625 -13.92578125 15.25390625 -11.3125 12.5625 C-10.41402344 11.61890625 -9.51554687 10.6753125 -8.58984375 9.703125 C-7.73519531 8.81109375 -6.88054687 7.9190625 -6 7 C-3.9669267 4.69240213 -1.98430795 2.34983836 0 0 Z " fill="#F6F8FD" transform="translate(377,438)"/>
<path d="M0 0 C2.98046875 1.71875 2.98046875 1.71875 6 4 C6.55078125 6.21875 6.55078125 6.21875 6.3125 8.5 C6.03957889 11.62521427 6.08741991 13.98093806 7 17 C5.02 17.99 5.02 17.99 3 19 C3 19.66 3 20.32 3 21 C1.03852126 22.38938077 -0.96166576 23.7260411 -3 25 C-5.31 23.02 -7.62 21.04 -10 19 C-8.62394084 14.23448987 -6.53221934 10.2751447 -3.875 6.125 C-3.50246094 5.53203125 -3.12992187 4.9390625 -2.74609375 4.328125 C-1.83635 2.8818657 -0.91896202 1.44041954 0 0 Z " fill="#F6F7FD" transform="translate(315,479)"/>
<path d="M0 0 C2.45703125 1.53125 2.45703125 1.53125 4.8125 3.5 C5.60269531 4.1496875 6.39289063 4.799375 7.20703125 5.46875 C7.79871094 5.9740625 8.39039063 6.479375 9 7 C7.52202738 10.67056937 5.52384523 12.41085783 2.375 14.75 C1.55773437 15.36359375 0.74046875 15.9771875 -0.1015625 16.609375 C-0.72804688 17.06828125 -1.35453125 17.5271875 -2 18 C-4.99220268 16.63629701 -7.29026529 15.05091917 -9.75 12.875 C-10.36359375 12.33617187 -10.9771875 11.79734375 -11.609375 11.2421875 C-12.06828125 10.83226562 -12.5271875 10.42234375 -13 10 C-11.70670686 7.18049838 -10.33320693 4.99195236 -8.1875 2.75 C-7.70667969 2.22921875 -7.22585938 1.7084375 -6.73046875 1.171875 C-4.29245325 -0.4791513 -2.89477316 -0.43465062 0 0 Z " fill="#F8F9FE" transform="translate(329,497)"/>
<path d="M0 0 C0.66 0 1.32 0 2 0 C2 2.64 2 5.28 2 8 C4.31 8.33 6.62 8.66 9 9 C9 9.33 9 9.66 9 10 C7.60539551 10.32411865 7.60539551 10.32411865 6.18261719 10.65478516 C2.19769232 12.33911593 1.69986486 13.58698696 0.078125 17.5234375 C-0.38980469 18.626875 -0.85773438 19.7303125 -1.33984375 20.8671875 C-1.80519531 22.02476562 -2.27054687 23.18234375 -2.75 24.375 C-3.70288396 26.65374664 -4.65599945 28.93239649 -5.609375 31.2109375 C-6.02155273 32.22462402 -6.43373047 33.23831055 -6.85839844 34.28271484 C-7.82278264 36.57818024 -8.85328893 38.79149504 -10 41 C-10.99 41 -11.98 41 -13 41 C-12.40075776 36.80530429 -11.42500059 32.99000166 -10 29 C-10.45375 29.495 -10.9075 29.99 -11.375 30.5 C-13 32 -13 32 -15 32 C-15.33 31.01 -15.66 30.02 -16 29 C-14.3046875 26.36328125 -14.3046875 26.36328125 -11.875 23.3125 C-9.06436109 19.73344189 -6.38480594 16.17196079 -4.0625 12.25 C-3.381875 11.1775 -2.70125 10.105 -2 9 C-1.34 9 -0.68 9 0 9 C0 6.03 0 3.06 0 0 Z " fill="#214DFE" transform="translate(360,520)"/>
<path d="M0 0 C0.66 0 1.32 0 2 0 C4.64 5.28 7.28 10.56 10 16 C6 21 6 21 3.5625 21.6640625 C-3.41440744 21.5577072 -3.41440744 21.5577072 -6.625 18.5 C-7.07875 17.675 -7.5325 16.85 -8 16 C-6.57250019 12.20950293 -4.83763458 8.72877544 -2.875 5.1875 C-2.33617187 4.21167969 -1.79734375 3.23585938 -1.2421875 2.23046875 C-0.83226562 1.49441406 -0.42234375 0.75835937 0 0 Z " fill="#F6F8FE" transform="translate(326,460)"/>
<path d="M0 0 C1 2 1 2 0.22265625 4.6015625 C-0.16019531 5.59929688 -0.54304688 6.59703125 -0.9375 7.625 C-1.31777344 8.62789062 -1.69804687 9.63078125 -2.08984375 10.6640625 C-2.39019531 11.43492187 -2.69054687 12.20578125 -3 13 C-2.01 13.33 -1.02 13.66 0 14 C1.6797159 16.93950283 2.01615518 18.73074702 1.8125 22.125 C0.61 26.38 0.61 26.38 -2 28 C-5.56189366 28.5304948 -7.26853286 28.536928 -10.203125 26.3828125 C-12.63037924 23.16406231 -12.26643867 21.38811475 -11.8125 17.4375 C-11.69519531 16.30183594 -11.57789063 15.16617188 -11.45703125 13.99609375 C-11 11 -11 11 -10 8 C-9.01 8.66 -8.02 9.32 -7 10 C-3.535 5.05 -3.535 5.05 0 0 Z " fill="#2854FE" transform="translate(350,548)"/>
<path d="M0 0 C3.29690593 0.76082445 4.48226263 1.81068444 6.4375 4.5625 C6.9375 7.5625 6.9375 7.5625 6.4375 10.5625 C4.20543569 13.41030619 2.88757001 14.41247666 -0.5625 15.5625 C-0.8925 16.2225 -1.2225 16.8825 -1.5625 17.5625 C-2.2225 17.5625 -2.8825 17.5625 -3.5625 17.5625 C-3.75585938 18.40554688 -3.94921875 19.24859375 -4.1484375 20.1171875 C-4.53902344 21.76074219 -4.53902344 21.76074219 -4.9375 23.4375 C-5.19273437 24.52804687 -5.44796875 25.61859375 -5.7109375 26.7421875 C-6.5625 29.5625 -6.5625 29.5625 -8.5625 31.5625 C-9.82476416 27.27080186 -9.2920879 24.65889239 -7.5625 20.5625 C-6.9025 19.9025 -6.2425 19.2425 -5.5625 18.5625 C-6.8825 18.2325 -8.2025 17.9025 -9.5625 17.5625 C-8.9025 16.9025 -8.2425 16.2425 -7.5625 15.5625 C-7.50997606 13.28656939 -7.50997606 13.28656939 -7.75 10.75 C-7.83069739 6.76700724 -7.75851027 5.84251467 -5.375 2.4375 C-2.5625 0.5625 -2.5625 0.5625 0 0 Z " fill="#2753FE" transform="translate(385.5625,418.4375)"/>
<path d="M0 0 C2.04023181 3.06034772 3.00748797 5.64977755 4.1640625 9.12890625 C4.76347656 10.92811523 4.76347656 10.92811523 5.375 12.76367188 C5.99375 14.6440918 5.99375 14.6440918 6.625 16.5625 C7.04913402 17.83279758 7.47360946 19.10298123 7.8984375 20.37304688 C11 29.73311942 11 29.73311942 11 32 C11.66 32 12.32 32 13 32 C13.33 31.34 13.66 30.68 14 30 C14.99 32.64 15.98 35.28 17 38 C17.66 38 18.32 38 19 38 C19 39.65 19 41.3 19 43 C17.0625 43.5625 17.0625 43.5625 15 44 C14.505 43.505 14.505 43.505 14 43 C12.68 43 11.36 43 10 43 C9.855625 42.360625 9.71125 41.72125 9.5625 41.0625 C9.18992819 39.02454854 9.18992819 39.02454854 8 38 C7.21321028 35.5064818 6.46815815 33.01341591 5.75 30.5 C4.38060528 25.72576185 3.00146426 20.96148573 1.48828125 16.23046875 C1.24948242 15.46863281 1.01068359 14.70679688 0.76464844 13.921875 C0.30400497 12.45601651 -0.16765699 10.99356565 -0.65136719 9.53515625 C-2.19338361 4.55066634 -2.19338361 4.55066634 -1.12890625 1.51953125 C-0.75636719 1.01808594 -0.38382812 0.51664062 0 0 Z " fill="#1D45FE" transform="translate(276,443)"/>
<path d="M0 0 C3.3125 0.9375 3.3125 0.9375 5.3125 2.9375 C5.5078125 5.9765625 5.5078125 5.9765625 5.4375 9.5625 C5.41945313 10.75101562 5.40140625 11.93953125 5.3828125 13.1640625 C5.35960937 14.07929688 5.33640625 14.99453125 5.3125 15.9375 C4.6525 15.9375 3.9925 15.9375 3.3125 15.9375 C3.3125 17.9175 3.3125 19.8975 3.3125 21.9375 C0.3125 19.9375 0.3125 19.9375 -0.5 17.5625 C-1.5306502 14.64392934 -1.5306502 14.64392934 -4.75 13 C-7.6875 10.9375 -7.6875 10.9375 -8.875 8 C-8.6875 4.9375 -8.6875 4.9375 -6.6875 2 C-3.6875 -0.0625 -3.6875 -0.0625 0 0 Z " fill="#1F4AFE" transform="translate(270.6875,419.0625)"/>
<path d="M0 0 C3 1 3 1 4.07495117 2.58227539 C4.39439697 3.24735107 4.71384277 3.91242676 5.04296875 4.59765625 C5.39423828 5.31630859 5.74550781 6.03496094 6.10742188 6.77539062 C6.46384766 7.53013672 6.82027344 8.28488281 7.1875 9.0625 C7.55552734 9.82111328 7.92355469 10.57972656 8.30273438 11.36132812 C9.21085497 13.23653819 10.10661015 15.11772733 11 17 C8.75 19.0625 8.75 19.0625 6 21 C2.19633445 20.80946388 -0.28571038 18.74799736 -2.859375 16.08984375 C-5.20318767 11.79552944 -4.26465907 6.56644465 -3 2 C-2.01 1.34 -1.02 0.68 0 0 Z " fill="#FAFAFD" transform="translate(337,481)"/>
<path d="M0 0 C3.375 -0.125 3.375 -0.125 7 0 C9.40347844 2.40347844 9.15920335 2.87654471 9.1875 6.125 C9.61146108 11.27072364 11.86494576 13.77899211 15.40625 17.37109375 C17 19 17 19 18 21 C14.66737083 20.61912809 13.13140489 20.10840904 10.5 17.9375 C8.16940022 15.81496596 8.16940022 15.81496596 5.375 15.5625 C2.62253491 16.06953304 1.71241913 16.83694426 0 19 C-0.66 18.67 -1.32 18.34 -2 18 C-1.649375 17.05125 -1.29875 16.1025 -0.9375 15.125 C0.35026777 12.12939828 0.35026777 12.12939828 -1 10 C-0.9129796 8.28766312 -0.75902838 6.57824594 -0.5625 4.875 C-0.46066406 3.96492188 -0.35882813 3.05484375 -0.25390625 2.1171875 C-0.17011719 1.41851562 -0.08632813 0.71984375 0 0 Z " fill="#224EFE" transform="translate(321,482)"/>
<path d="M0 0 C0.66 0 1.32 0 2 0 C3.65625 1.93359375 3.65625 1.93359375 5.5 4.4375 C7.79910263 7.74856792 7.79910263 7.74856792 11 10 C12.32 10 13.64 10 15 10 C14.90460938 10.61488281 14.80921875 11.22976563 14.7109375 11.86328125 C14.54464844 13.07564453 14.54464844 13.07564453 14.375 14.3125 C14.25898438 15.11300781 14.14296875 15.91351562 14.0234375 16.73828125 C13.78466593 19.28723215 13.78466593 19.28723215 16 22 C16.25760279 24.69452521 16.08900053 27.28548375 16 30 C15.01 30 14.02 30 13 30 C13 29.34 13 28.68 13 28 C11.35 28.33 9.7 28.66 8 29 C7.34 27.68 6.68 26.36 6 25 C7.32 24.34 8.64 23.68 10 23 C9.01 22.34 8.02 21.68 7 21 C5.92778851 17.84293285 5.11966922 14.79779481 4.625 11.5 C4.01462052 9.05848206 3.20228919 7.46486055 1.9375 5.3125 C0 2 0 2 0 0 Z " fill="#1E48FE" transform="translate(301,543)"/>
<path d="M0 0 C0 7.92 0 15.84 0 24 C-3.28660638 20.71339362 -5.1270669 18.44787914 -7.3125 14.5 C-7.84488281 13.5615625 -8.37726563 12.623125 -8.92578125 11.65625 C-10 9 -10 9 -9.84765625 6.828125 C-7.95787311 2.75246367 -4.44087663 0 0 0 Z " fill="#F9FAFD" transform="translate(364,492)"/>
<path d="M0 0 C2.8605891 1.35937085 4.85927699 2.64520469 7 5 C5.43416404 9.03721561 2.55826135 11.47070582 -0.625 14.25 C-1.140625 14.70890625 -1.65625 15.1678125 -2.1875 15.640625 C-3.4534602 16.76592296 -4.72607942 17.88372177 -6 19 C-6.99 18.67 -7.98 18.34 -9 18 C-8.45207105 13.3817417 -6.41035512 10.01850353 -3.9375 6.1875 C-3.56044922 5.59001953 -3.18339844 4.99253906 -2.79492188 4.37695312 C-1.87010434 2.91363423 -0.93597935 1.45620477 0 0 Z " fill="#F6F8FD" transform="translate(302,501)"/>
<path d="M0 0 C0.7425 0.350625 1.485 0.70125 2.25 1.0625 C5.1322726 2.04509293 6.21176345 2.0326802 9 1 C9.144375 2.134375 9.28875 3.26875 9.4375 4.4375 C9.61171478 7.80777201 9.61171478 7.80777201 11 9 C10.8125 12.4375 10.8125 12.4375 10 16 C8.02 16.99 8.02 16.99 6 18 C6 24.27 6 30.54 6 37 C5.67 37 5.34 37 5 37 C4.91314713 33.70849875 4.85966105 30.4172904 4.8125 27.125 C4.78736328 26.18785156 4.76222656 25.25070312 4.73632812 24.28515625 C4.72182617 22.94130859 4.72182617 22.94130859 4.70703125 21.5703125 C4.68346558 20.32918701 4.68346558 20.32918701 4.65942383 19.06298828 C4.77181396 18.38220215 4.8842041 17.70141602 5 17 C5.99 16.34 6.98 15.68 8 15 C8 14.34 8 13.68 8 13 C7.67 13.66 7.34 14.32 7 15 C6.34 14.67 5.68 14.34 5 14 C5 12.68 5 11.36 5 10 C4.01 10 3.02 10 2 10 C1.34 11.32 0.68 12.64 0 14 C-0.84811868 9.94787741 -0.97622427 7.01336646 0 3 C0 2.01 0 1.02 0 0 Z " fill="#2750FE" transform="translate(362,472)"/>
<path d="M0 0 C0.99 0 1.98 0 3 0 C5 3 5 3 4.625 5.6875 C4.41875 6.450625 4.2125 7.21375 4 8 C4.66 8 5.32 8 6 8 C6 10.97 6 13.94 6 17 C5.34 16.67 4.68 16.34 4 16 C4 15.34 4 14.68 4 14 C2.35 14 0.7 14 -1 14 C-1.33 14.66 -1.66 15.32 -2 16 C-2.66 14.02 -3.32 12.04 -4 10 C-4.66 10 -5.32 10 -6 10 C-6.33 7.69 -6.66 5.38 -7 3 C-6.01 2.67 -5.02 2.34 -4 2 C-3.67 3.65 -3.34 5.3 -3 7 C-2.814375 5.824375 -2.814375 5.824375 -2.625 4.625 C-2 2 -2 2 0 0 Z " fill="#2955FE" transform="translate(326,519)"/>
<path d="M0 0 C2.4375 2.125 2.4375 2.125 4 5 C3.75 8.3125 3.75 8.3125 3 11 C2.01 11 1.02 11 0 11 C-0.33 10.34 -0.66 9.68 -1 9 C-1.5775 9.165 -2.155 9.33 -2.75 9.5 C-5 10 -5 10 -9 10 C-9.29296875 3.9453125 -9.29296875 3.9453125 -9 2 C-5.50434664 -0.33043558 -4.1134271 -0.58763244 0 0 Z " fill="#1842FE" transform="translate(348,419)"/>
<path d="M0 0 C6.90196078 4.20119352 6.90196078 4.20119352 8 8 C6.91796875 10.47265625 6.91796875 10.47265625 5.1875 13.0625 C3.40283365 15.77829662 2.03133241 17.90600278 1 21 C0.34 21 -0.32 21 -1 21 C-1.0270203 18.24993392 -1.04684883 15.50013454 -1.0625 12.75 C-1.07087891 11.97269531 -1.07925781 11.19539063 -1.08789062 10.39453125 C-1.09111328 9.64042969 -1.09433594 8.88632812 -1.09765625 8.109375 C-1.10289307 7.41811523 -1.10812988 6.72685547 -1.11352539 6.01464844 C-0.99437971 3.90026102 -0.57618237 2.03358485 0 0 Z " fill="#EDF1FD" transform="translate(291,492)"/>
<path d="M0 0 C2.61724095 2.36797991 4.32861729 4.89600354 6 8 C6 8.66 6 9.32 6 10 C6.886875 9.835 7.77375 9.67 8.6875 9.5 C12 10 12 10 13.546875 11.67578125 C14.90653964 13.76492888 16.10494171 15.67106724 17 18 C16.67 18.99 16.34 19.98 16 21 C16.87914688 23.6569191 16.87914688 23.6569191 18 26 C17.34 26 16.68 26 16 26 C14.82823482 23.87767021 13.66245215 21.75242209 12.5 19.625 C12.16613281 19.02171875 11.83226562 18.4184375 11.48828125 17.796875 C9 13.2265625 9 13.2265625 9 11 C8.34 11 7.68 11 7 11 C6.79375 11.804375 6.5875 12.60875 6.375 13.4375 C4.57139638 18.110473 1.87884691 21.92616004 -1 26 C-1 22.30581799 0.28179295 20.22163822 2 17 C1.34 16.67 0.68 16.34 0 16 C0.515625 15.278125 1.03125 14.55625 1.5625 13.8125 C3.75874705 9.51549489 2.35856336 7.117874 0.9375 2.6875 C0.628125 1.800625 0.31875 0.91375 0 0 Z " fill="#1740FE" transform="translate(319,449)"/>
<path d="M0 0 C1.98 0.99 3.96 1.98 6 3 C5.2575 3.6496875 5.2575 3.6496875 4.5 4.3125 C2.66781808 5.99740483 2.66781808 5.99740483 3 9 C3.99 9 4.98 9 6 9 C6.66 7.68 7.32 6.36 8 5 C8.66 5.33 9.32 5.66 10 6 C9.67 4.68 9.34 3.36 9 2 C10.5625 3.125 10.5625 3.125 12 5 C11.8701011 8.11757366 11.48916419 10.22763549 9.8125 12.875 C7.05655076 14.58558918 5.17374516 14.45339217 2 14 C-0.4375 12.4375 -0.4375 12.4375 -2 10 C-1.80923275 6.37542227 -1.14490236 3.43470709 0 0 Z " fill="#1D47FE" transform="translate(340,562)"/>
<path d="M0 0 C5.06623768 4.23816537 9.80038069 8.67408963 14.4375 13.375 C15.07365234 14.01566406 15.70980469 14.65632813 16.36523438 15.31640625 C17.91250332 16.87530879 19.45736492 18.43651416 21 20 C20.67 20.66 20.34 21.32 20 22 C19.52949219 21.4946875 19.05898438 20.989375 18.57421875 20.46875 C17.95160156 19.8190625 17.32898438 19.169375 16.6875 18.5 C16.07261719 17.8503125 15.45773437 17.200625 14.82421875 16.53125 C13.01398471 14.6785386 13.01398471 14.6785386 10 15 C7.73828125 13.1015625 7.73828125 13.1015625 5.3125 10.625 C4.10013672 9.40683594 4.10013672 9.40683594 2.86328125 8.1640625 C1 6 1 6 1 4 C0.34 4 -0.32 4 -1 4 C-0.690625 5.6396875 -0.690625 5.6396875 -0.375 7.3125 C0 11 0 11 -2 14 C-4.08575198 9.58311346 -4.08575198 9.58311346 -3.6875 6.875 C-3.460625 6.25625 -3.23375 5.6375 -3 5 C-2.67 4.01 -2.34 3.02 -2 2 C-1.34 2 -0.68 2 0 2 C0 1.34 0 0.68 0 0 Z " fill="#143DFE" transform="translate(276,433)"/>
<path d="M0 0 C1.9375 0.75 1.9375 0.75 4 2 C4.5625 3.9375 4.5625 3.9375 5 6 C5.495 6.474375 5.99 6.94875 6.5 7.4375 C8 9 8 9 8.3671875 11.1796875 C9.4392048 15.95744362 12.1844074 19.91863979 14.6015625 24.13671875 C15.06304687 25.08160156 15.52453125 26.02648437 16 27 C15.67 27.66 15.34 28.32 15 29 C14.34 29 13.68 29 13 29 C10.36 24.05 7.72 19.1 5 14 C3.68 14.33 2.36 14.66 1 15 C0.34 14.34 -0.32 13.68 -1 13 C-0.690625 12.401875 -0.38125 11.80375 -0.0625 11.1875 C1.58442676 7.79676843 2.15562383 6.52912103 1.0625 2.8125 C0.711875 1.884375 0.36125 0.95625 0 0 Z " fill="#2750FE" transform="translate(334,468)"/>
<path d="M0 0 C2.2265625 -0.296875 2.2265625 -0.296875 5 0 C7.2734375 2.046875 7.2734375 2.046875 9.375 4.75 C10.43847656 6.07257812 10.43847656 6.07257812 11.5234375 7.421875 C13 10 13 10 12.7265625 12.328125 C12.36691406 13.15570312 12.36691406 13.15570312 12 14 C11.01 13.67 10.02 13.34 9 13 C8.67 14.32 8.34 15.64 8 17 C6.66161267 14.54429825 5.32913768 12.08570084 4 9.625 C3.6184375 8.92632813 3.236875 8.22765625 2.84375 7.5078125 C0 2.2265625 0 2.2265625 0 0 Z " fill="#2A56FE" transform="translate(292,530)"/>
<path d="M0 0 C3.625 0.375 3.625 0.375 7 1 C5.02 1.99 5.02 1.99 3 3 C3.33 4.32 3.66 5.64 4 7 C7.27773504 6.24849977 7.27773504 6.24849977 9 3 C9.33 4.65 9.66 6.3 10 8 C10.33 7.34 10.66 6.68 11 6 C11.33 7.65 11.66 9.3 12 11 C11.01 11.66 10.02 12.32 9 13 C8.04521289 15.67130932 7.83314096 18.28934186 7.68359375 21.109375 C7.64169922 21.86347656 7.59980469 22.61757813 7.55664062 23.39453125 C7.49766602 24.56048828 7.49766602 24.56048828 7.4375 25.75 C7.39431641 26.54277344 7.35113281 27.33554687 7.30664062 28.15234375 C7.20097009 30.10137815 7.10002034 32.05066748 7 34 C6.67 34 6.34 34 6 34 C6.02618408 33.2886792 6.05236816 32.5773584 6.0793457 31.84448242 C6.18319396 28.62571241 6.24828758 25.4072942 6.3125 22.1875 C6.35439453 21.06794922 6.39628906 19.94839844 6.43945312 18.79492188 C6.45556641 17.72177734 6.47167969 16.64863281 6.48828125 15.54296875 C6.51446533 14.55321045 6.54064941 13.56345215 6.56762695 12.54370117 C6.23718873 9.74647961 6.23718873 9.74647961 3.46948242 8.15356445 C2.65455322 7.77288818 1.83962402 7.39221191 1 7 C1.99 8.65 2.98 10.3 4 12 C0.83884224 10.63016497 0.0072908 10.0109362 -2 7 C-2.25 4.4375 -2.25 4.4375 -2 2 C-1.34 1.34 -0.68 0.68 0 0 Z " fill="#113BFE" transform="translate(283,479)"/>
<path d="M0 0 C6 6 6 6 6.0625 8.5625 C6.041875 9.366875 6.02125 10.17125 6 11 C7.175625 11.2165625 7.175625 11.2165625 8.375 11.4375 C11 12 11 12 13 13 C12.67 13.66 12.34 14.32 12 15 C10.35 14.01 8.7 13.02 7 12 C6.86851562 12.72316406 6.73703125 13.44632812 6.6015625 14.19140625 C6.02880404 16.8655188 5.24997219 19.34938132 4.375 21.9375 C3.12175564 25.98784047 2.79412746 28.8342585 4 33 C1.27208773 28.90813159 -0.09940934 25.72309515 0.1875 20.75 C1 17 1 17 1.8828125 14.5078125 C2.77309061 11.98660474 3.57904113 9.64218864 4 7 C2.36318104 3.97136086 2.36318104 3.97136086 0 2 C0 1.34 0 0.68 0 0 Z " fill="#1A42FE" transform="translate(290,451)"/>
<path d="M0 0 C2.3125 1.4375 2.3125 1.4375 3.375 3.8125 C3.3125 6.4375 3.3125 6.4375 1.5 8.75 C-0.6875 10.4375 -0.6875 10.4375 -2.6875 10.4375 C-3.0175 11.4275 -3.3475 12.4175 -3.6875 13.4375 C-6.10435712 9.20800005 -7.03583144 6.31414009 -6.6875 1.4375 C-4.10756343 -0.28245771 -3.0937542 -0.64752995 0 0 Z " fill="#1E4AFE" transform="translate(309.6875,421.5625)"/>
<path d="M0 0 C1.875 1.0625 1.875 1.0625 3 3 C2.6875 6.6875 2.6875 6.6875 2 10 C1.67 10 1.34 10 1 10 C0.34 8.02 -0.32 6.04 -1 4 C-0.67 5.32 -0.34 6.64 0 8 C-1.98 8.99 -1.98 8.99 -4 10 C-4.66 9.01 -5.32 8.02 -6 7 C-6.99 8.485 -6.99 8.485 -8 10 C-8.66 10 -9.32 10 -10 10 C-9.51470588 3.56985294 -9.51470588 3.56985294 -7.25 1.0625 C-4.55036635 -0.212327 -2.95083651 -0.45397485 0 0 Z " fill="#244EFE" transform="translate(388,419)"/>
<path d="M0 0 C2.46278801 2.46278801 2.99771255 4.70676982 4 8 C4.66 8 5.32 8 6 8 C6 9.65 6 11.3 6 13 C4.0625 13.5625 4.0625 13.5625 2 14 C1.67 13.67 1.34 13.34 1 13 C-0.32 13 -1.64 13 -3 13 C-3.144375 12.360625 -3.28875 11.72125 -3.4375 11.0625 C-3.81007181 9.02454854 -3.81007181 9.02454854 -5 8 C-5.33 7.01 -5.66 6.02 -6 5 C-5.34 5 -4.68 5 -4 5 C-3.67 4.01 -3.34 3.02 -3 2 C-3 2.66 -3 3.32 -3 4 C-2.34 4 -1.68 4 -1 4 C-0.67 2.68 -0.34 1.36 0 0 Z " fill="#2A57FE" transform="translate(289,473)"/>
<path d="M0 0 C4.5368641 1.34482854 6.05087942 3.02252545 8.3125 7.125 C8.82425781 8.03507812 9.33601563 8.94515625 9.86328125 9.8828125 C10.23839844 10.58148438 10.61351562 11.28015625 11 12 C12.32 11.67 13.64 11.34 15 11 C15 12.98 15 14.96 15 17 C13.02 17 11.04 17 9 17 C7.49743011 14.35559624 5.9978388 11.70958148 4.5 9.0625 C4.07074219 8.30775391 3.64148438 7.55300781 3.19921875 6.77539062 C2.79316406 6.05673828 2.38710938 5.33808594 1.96875 4.59765625 C1.59169922 3.93258057 1.21464844 3.26750488 0.82617188 2.58227539 C0 1 0 1 0 0 Z " fill="#224CFE" transform="translate(316,442)"/>
<path d="M0 0 C3 3.75 3 3.75 3 6 C3.66 6 4.32 6 5 6 C4.67 4.68 4.34 3.36 4 2 C5.32 3.32 6.64 4.64 8 6 C8.99 5.34 9.98 4.68 11 4 C11.66 4.33 12.32 4.66 13 5 C11.66666667 8.33333333 10.33333333 11.66666667 9 15 C8.67 13.68 8.34 12.36 8 11 C7.34 11 6.68 11 6 11 C6 12.65 6 14.3 6 16 C3.63224279 13.63224279 3.00103504 11.70288662 1.875 8.5625 C1.52179688 7.59441406 1.16859375 6.62632812 0.8046875 5.62890625 C0 3 0 3 0 0 Z " fill="#1641FE" transform="translate(334,546)"/>
<path d="M0 0 C0.99 0 1.98 0 3 0 C4.17176518 2.12232979 5.33754785 4.24757791 6.5 6.375 C6.83386719 6.97828125 7.16773438 7.5815625 7.51171875 8.203125 C10 12.7734375 10 12.7734375 10 15 C6.31930113 13.46356148 4.01224796 11.21849055 1.25 8.375 C0.45078125 7.55773437 -0.3484375 6.74046875 -1.171875 5.8984375 C-1.77515625 5.27195312 -2.3784375 4.64546875 -3 4 C-1.6875 2 -1.6875 2 0 0 Z " fill="#F0F2FE" transform="translate(348,502)"/>
<path d="M0 0 C4.29378813 1.92287034 6.77153701 4.62478869 10 8 C8.9475548 10.75254898 7.82342035 13.33196973 6.4375 15.9375 C4.97123715 19.06127738 4.49496561 21.60595008 4 25 C3.62875 26.0725 3.2575 27.145 2.875 28.25 C1.67190418 30.92493749 1.67190418 30.92493749 3 33 C1.68 32.34 0.36 31.68 -1 31 C0.11215614 24.21584752 2.2482306 19.33483887 5.85546875 13.48046875 C7.17510042 11.13748023 7.17510042 11.13748023 6.8671875 8.91015625 C5.84391972 6.65620154 4.59601299 5.08495054 2.9375 3.25 C2.38964844 2.63640625 1.84179688 2.0228125 1.27734375 1.390625 C0.85582031 0.93171875 0.43429687 0.4728125 0 0 Z " fill="#123BFE" transform="translate(304,467)"/>
<path d="M0 0 C3.4375 0.75 3.4375 0.75 5.4375 2.75 C5.6328125 5.3515625 5.6328125 5.3515625 5.5625 8.375 C5.54445313 9.37789063 5.52640625 10.38078125 5.5078125 11.4140625 C5.47300781 12.57035156 5.47300781 12.57035156 5.4375 13.75 C3.4375 12.75 3.4375 12.75 2.76171875 10.97265625 C2.55160156 10.25980469 2.34148437 9.54695313 2.125 8.8125 C0.94869493 5.3399528 0.94869493 5.3399528 -2.125 3.3125 C-2.929375 3.126875 -3.73375 2.94125 -4.5625 2.75 C-5.2225 2.42 -5.8825 2.09 -6.5625 1.75 C-3.5625 -0.25 -3.5625 -0.25 0 0 Z " fill="#1A43FE" transform="translate(270.5625,419.25)"/>
<path d="M0 0 C2 1 2 1 3.1875 3 C4.30413816 7.12297166 3.85107376 10.83919493 3 15 C2.67 15.33 2.34 15.66 2 16 C1.92760255 18.23074644 2.00350207 20.44492191 2.0625 22.67578125 C2.00156103 24.94194917 1.63512433 26.83164585 1 29 C0.01 29 -0.98 29 -2 29 C-2 26.29189349 -1.64558924 24.58235696 -1 22 C-0.835 20.824375 -0.67 19.64875 -0.5 18.4375 C0 15 0 15 1 12 C0.67966043 9.99787771 0.34740923 7.99760305 0 6 C0.33 5.67 0.66 5.34 1 5 C0.71395102 3.32457024 0.38218767 1.65614657 0 0 Z " fill="#133CFE" transform="translate(360,464)"/>
<path d="M0 0 C4.875 0.875 4.875 0.875 6 2 C6.66 1.34 7.32 0.68 8 0 C9 1 9 1 9.25 3.875 C9 7 9 7 7.625 8.875 C6 10 6 10 4 10 C4 9.34 4 8.68 4 8 C1.36 8.66 -1.28 9.32 -4 10 C-3.22404875 6.89619499 -2.4731994 4.74997221 -1 2 C-0.34 3.32 0.32 4.64 1 6 C1.99 5.67 2.98 5.34 4 5 C3.24849977 1.72226496 3.24849977 1.72226496 0 0 Z " fill="#1740FE" transform="translate(383,422)"/>
<path d="M0 0 C0.99 0 1.98 0 3 0 C5 3 5 3 4.625 5.6875 C4.41875 6.450625 4.2125 7.21375 4 8 C1.625 8.625 1.625 8.625 -1 9 C-1.66 8.34 -2.32 7.68 -3 7 C-2.67028521 3.70285207 -2.3773161 2.3773161 0 0 Z " fill="#F1F4FD" transform="translate(326,519)"/>
<path d="M0 0 C0.66 0.33 1.32 0.66 2 1 C1.4946875 1.47050781 0.989375 1.94101562 0.46875 2.42578125 C-0.1809375 3.04839844 -0.830625 3.67101562 -1.5 4.3125 C-2.47453125 5.23482422 -2.47453125 5.23482422 -3.46875 6.17578125 C-5.3214614 7.98601529 -5.3214614 7.98601529 -5 11 C-7.5 13.6875 -7.5 13.6875 -10 16 C-12.475 15.01 -12.475 15.01 -15 14 C-15 13.01 -15 12.02 -15 11 C-13.68 11 -12.36 11 -11 11 C-8.92714539 9.21665022 -7.10700368 7.48372834 -5.25 5.5 C-4.49009766 4.71302734 -4.49009766 4.71302734 -3.71484375 3.91015625 C-2.46734913 2.61558637 -1.23242693 1.3089224 0 0 Z " fill="#0D35FE" transform="translate(353,460)"/>
<path d="M0 0 C0.66 0 1.32 0 2 0 C3.65625 1.86328125 3.65625 1.86328125 5.5 4.3125 C6.1084375 5.11300781 6.716875 5.91351562 7.34375 6.73828125 C11.03151202 11.77416383 11.03151202 11.77416383 10.625 14.6875 C10.41875 15.450625 10.2125 16.21375 10 17 C9.34 17 8.68 17 8 17 C6.66161267 14.54429825 5.32913768 12.08570084 4 9.625 C3.6184375 8.92632813 3.236875 8.22765625 2.84375 7.5078125 C0 2.2265625 0 2.2265625 0 0 Z " fill="#E8ECFC" transform="translate(301,543)"/>
<path d="M0 0 C0.66 0 1.32 0 2 0 C2.33 0.99 2.66 1.98 3 3 C2.34 3.66 1.68 4.32 1 5 C1 5.99 1 6.98 1 8 C-0.63260714 9.37482707 -2.30225062 10.70647667 -4 12 C-4.99 13.485 -4.99 13.485 -6 15 C-6.33 14.01 -6.66 13.02 -7 12 C-8.65 12.33 -10.3 12.66 -12 13 C-11.319375 12.46375 -10.63875 11.9275 -9.9375 11.375 C-8.968125 10.59125 -7.99875 9.8075 -7 9 C-6.06414062 8.25943359 -6.06414062 8.25943359 -5.109375 7.50390625 C-4.47515625 6.98699219 -3.8409375 6.47007812 -3.1875 5.9375 C-2.58292969 5.45152344 -1.97835938 4.96554687 -1.35546875 4.46484375 C0.33958691 2.96563813 0.33958691 2.96563813 0 0 Z " fill="#1B44FE" transform="translate(337,503)"/>
<path d="M0 0 C2.29013653 3.4352048 2.17842973 4.985331 2 9 C1.67 9 1.34 9 1 9 C0.67 7.68 0.34 6.36 0 5 C-0.66 6.65 -1.32 8.3 -2 10 C-2.66 9.67 -3.32 9.34 -4 9 C-3.67 7.35 -3.34 5.7 -3 4 C-5.32854463 2.80161791 -5.32854463 2.80161791 -8 2 C-8.99 2.66 -9.98 3.32 -11 4 C-8.41216357 -1.73020923 -5.98953485 -1.28347175 0 0 Z " fill="#113AFE" transform="translate(315,420)"/>
<path d="M0 0 C0.99 0.33 1.98 0.66 3 1 C3 2.98 3 4.96 3 7 C2.34 7 1.68 7 1 7 C0.34 8.32 -0.32 9.64 -1 11 C-2.32 10.67 -3.64 10.34 -5 10 C-4.3001048 6.85047161 -3.34839851 3.9347497 -2 1 C-1.34 0.67 -0.68 0.34 0 0 Z " fill="#2D57FF" transform="translate(347,561)"/>
<path d="M0 0 C2.23046875 -0.3125 2.23046875 -0.3125 5 0 C7.23828125 2.1875 7.23828125 2.1875 9.3125 5 C10.00988281 5.928125 10.70726562 6.85625 11.42578125 7.8125 C11.94527344 8.534375 12.46476562 9.25625 13 10 C12.67 10.66 12.34 11.32 12 12 C11.46375 11.195625 10.9275 10.39125 10.375 9.5625 C7.56894631 6.53491576 6.03174806 6.27489191 2 6 C1.34 4.02 0.68 2.04 0 0 Z " fill="#214BFE" transform="translate(292,530)"/>
<path d="M0 0 C0.99 0.33 1.98 0.66 3 1 C2.505 1.7425 2.01 2.485 1.5 3.25 C-0.31923475 6.06318188 -0.31923475 6.06318188 0 10 C0 10.99 0 11.98 0 13 C-0.598125 12.690625 -1.19625 12.38125 -1.8125 12.0625 C-4.08956772 10.89790296 -4.08956772 10.89790296 -7 10 C-7 9.01 -7 8.02 -7 7 C-5.68 6.67 -4.36 6.34 -3 6 C-3.66 5.67 -4.32 5.34 -5 5 C-3.625 3.5 -3.625 3.5 -2 2 C-1.34 2 -0.68 2 0 2 C0 1.34 0 0.68 0 0 Z " fill="#2E55FE" transform="translate(318,498)"/>
<path d="M0 0 C1.65 0.33 3.3 0.66 5 1 C5.6875 2.8125 5.6875 2.8125 6 5 C4.8125 6.8125 4.8125 6.8125 3 8 C0.8125 7.6875 0.8125 7.6875 -1 7 C-1.625 5.1875 -1.625 5.1875 -2 3 C-1.34 2.01 -0.68 1.02 0 0 Z " fill="#E3E9FC" transform="translate(325,485)"/>
<path d="M0 0 C2.59482129 2.59482129 2.69990302 4.39883625 3 8 C2.34 8.66 1.68 9.32 1 10 C0.525625 10.53625 0.05125 11.0725 -0.4375 11.625 C-2 13 -2 13 -5 13 C-6.68798827 14.43750191 -6.68798827 14.43750191 -8 16 C-8.33 15.01 -8.66 14.02 -9 13 C-8.34 13 -7.68 13 -7 13 C-7 12.01 -7 11.02 -7 10 C-6.030625 9.649375 -5.06125 9.29875 -4.0625 8.9375 C-0.60565398 7.24996333 -0.60565398 7.24996333 -0.125 3.3125 C-0.08375 2.219375 -0.0425 1.12625 0 0 Z " fill="#2A57FE" transform="translate(314,422)"/>
<path d="M0 0 C2.125 0.375 2.125 0.375 4 1 C4.33 2.65 4.66 4.3 5 6 C2 8 2 8 -0.1875 7.625 C-0.785625 7.41875 -1.38375 7.2125 -2 7 C-2.125 4.625 -2.125 4.625 -2 2 C-1.34 1.34 -0.68 0.68 0 0 Z " fill="#EEF2FD" transform="translate(287,520)"/>
<path d="M0 0 C3.875 0.875 3.875 0.875 5 2 C5.04063832 3.66617115 5.042721 5.33388095 5 7 C3.35 7.33 1.7 7.66 0 8 C-1.125 5.6875 -1.125 5.6875 -2 3 C-1.34 2.01 -0.68 1.02 0 0 Z " fill="#EAEDFC" transform="translate(364,520)"/>
<path d="M0 0 C0.391875 0.495 0.78375 0.99 1.1875 1.5 C3.55091715 3.45593143 5.01435003 3.24207973 8 3 C8.33 4.32 8.66 5.64 9 7 C6.20129973 8.39935013 4.09501208 8.25265405 1 8 C-0.875 6.5 -0.875 6.5 -2 5 C-1.67 4.34 -1.34 3.68 -1 3 C-0.34 3.33 0.32 3.66 1 4 C0.67 2.68 0.34 1.36 0 0 Z " fill="#183FFE" transform="translate(306,568)"/>
<path d="M0 0 C3 1 3 1 5 3 C5.33 3 5.66 3 6 3 C6.22223194 5.74086056 6.34781139 7.43963721 4.875 9.8125 C2.22464043 11.49106106 0.06753576 11.20450238 -3 11 C-3 10.01 -3 9.02 -3 8 C-1.68 7.67 -0.36 7.34 1 7 C1.15149298 3.37114676 1.15149298 3.37114676 0 0 Z " fill="#1039FE" transform="translate(367,520)"/>
<path d="M0 0 C0.4125 0.45375 0.825 0.9075 1.25 1.375 C3.19019186 3.32917823 3.19019186 3.32917823 7 5 C6.67 12.26 6.34 19.52 6 27 C5.67 27 5.34 27 5 27 C4.9906543 26.41508789 4.98130859 25.83017578 4.97167969 25.22753906 C4.91786721 22.5675142 4.83424551 19.90922778 4.75 17.25 C4.73582031 16.32960938 4.72164063 15.40921875 4.70703125 14.4609375 C4.62537139 9.05616603 4.62537139 9.05616603 1.953125 4.546875 C1.30859375 4.03640625 0.6640625 3.5259375 0 3 C0 2.01 0 1.02 0 0 Z " fill="#2A5AFE" transform="translate(283,484)"/>
<path d="M0 0 C1.22737521 3.68212564 0.61967671 4.29363795 -1 7.6875 C-3.14856169 12.69835792 -3.17233173 15.72450722 -2 21 C-4.59513109 17.10730337 -6.24290607 13.86227989 -5.625 9.125 C-5.41875 8.42375 -5.2125 7.7225 -5 7 C-4.34 7 -3.68 7 -3 7 C-2.01 4.69 -1.02 2.38 0 0 Z " fill="#123CFE" transform="translate(296,463)"/>
<path d="M0 0 C0.33 0.99 0.66 1.98 1 3 C1.99 3.66 2.98 4.32 4 5 C3.67 7.31 3.34 9.62 3 12 C2.67 12 2.34 12 2 12 C1.67 10.35 1.34 8.7 1 7 C0.34 7 -0.32 7 -1 7 C-1 6.01 -1 5.02 -1 4 C-3.97 3.505 -3.97 3.505 -7 3 C-7 2.34 -7 1.68 -7 1 C-3.535 0.505 -3.535 0.505 0 0 Z " fill="#2C58FE" transform="translate(330,514)"/>
<path d="M0 0 C0.66 0.33 1.32 0.66 2 1 C-0.2994032 6.17686866 -2.52678237 10.32966759 -7 14 C-7.99 14 -8.98 14 -10 14 C-6.7 9.38 -3.4 4.76 0 0 Z " fill="#1A43FE" transform="translate(355,534)"/>
<path d="M0 0 C0.99 0.66 1.98 1.32 3 2 C2.01 3.485 2.01 3.485 1 5 C1.66 5.33 2.32 5.66 3 6 C2.2575 6.144375 1.515 6.28875 0.75 6.4375 C-1.52027739 6.90187492 -3.75759479 7.41863569 -6 8 C-5.67 7.38125 -5.34 6.7625 -5 6.125 C-3.85806765 4.08981656 -3.85806765 4.08981656 -4 2 C-2.68 1.34 -1.36 0.68 0 0 Z " fill="#2955FE" transform="translate(343,501)"/>
<path d="M0 0 C3.41459553 1.13819851 4.3324158 2.24005518 6.625 4.9375 C7.23601562 5.64777344 7.84703125 6.35804688 8.4765625 7.08984375 C10 9 10 9 11 11 C7.11717622 10.77812436 6.03669303 10.03752696 3.25 7.1875 C0.35632184 3.08812261 0.35632184 3.08812261 0 0 Z " fill="#2552FE" transform="translate(328,492)"/>
<path d="M0 0 C0.33 0 0.66 0 1 0 C1.08076963 2.45898655 1.14037143 4.91533742 1.1875 7.375 C1.21263672 8.07367188 1.23777344 8.77234375 1.26367188 9.4921875 C1.29296875 11.5234375 1.29296875 11.5234375 1 15 C0.01 15.66 -0.98 16.32 -2 17 C-2.05398987 14.72942623 -2.09278742 12.45848712 -2.125 10.1875 C-2.14820313 8.92292969 -2.17140625 7.65835937 -2.1953125 6.35546875 C-2 3 -2 3 0 0 Z " fill="#345DFE" transform="translate(590,478)"/>
<path d="M0 0 C1.8125 0.875 1.8125 0.875 2.8125 2.875 C1.4925 2.545 0.1725 2.215 -1.1875 1.875 C-2.8375 4.845 -4.4875 7.815 -6.1875 10.875 C-6.8475 10.545 -7.5075 10.215 -8.1875 9.875 C-5.41000639 -0.30914322 -5.41000639 -0.30914322 0 0 Z " fill="#1F4AFE" transform="translate(316.1875,478.125)"/>
<path d="M0 0 C0.33 0.66 0.66 1.32 1 2 C0.00390625 4.3828125 0.00390625 4.3828125 -1.4375 7.125 C-1.91058594 8.03507813 -2.38367188 8.94515625 -2.87109375 9.8828125 C-3.24363281 10.58148437 -3.61617188 11.28015625 -4 12 C-4.99 12 -5.98 12 -7 12 C-5.44298069 7.32894208 -2.91552627 3.91294315 0 0 Z " fill="#E3E8FC" transform="translate(350,548)"/>
<path d="M0 0 C0 0.99 0 1.98 0 3 C-0.33 3.33 -0.66 3.66 -1 4 C-0.01 4.33 0.98 4.66 2 5 C1.67 5.99 1.34 6.98 1 8 C1 7.34 1 6.68 1 6 C-0.98 7.32 -2.96 8.64 -5 10 C-5 9.34 -5 8.68 -5 8 C-5.66 7.67 -6.32 7.34 -7 7 C-4.69 4.69 -2.38 2.38 0 0 Z " fill="#153EFE" transform="translate(378,432)"/>
<path d="M0 0 C-0.33 1.65 -0.66 3.3 -1 5 C-2.65 4.67 -4.3 4.34 -6 4 C-6 2.68 -6 1.36 -6 0 C-3.50907189 -1.24546405 -2.58919267 -0.7767578 0 0 Z " fill="#EBEFFC" transform="translate(313,424)"/>
<path d="M0 0 C3.96105999 3.96105999 6 7.43475512 6 13 C5.34 13 4.68 13 4 13 C3.71125 12.030625 3.4225 11.06125 3.125 10.0625 C2.35785318 6.89335797 2.35785318 6.89335797 0 6 C0 4.02 0 2.04 0 0 Z " fill="#2C58FE" transform="translate(333,539)"/>
<path d="M0 0 C1.32 0 2.64 0 4 0 C4.33 1.32 4.66 2.64 5 4 C3.02 4.99 3.02 4.99 1 6 C0.34 5.34 -0.32 4.68 -1 4 C-0.625 1.875 -0.625 1.875 0 0 Z " fill="#EEF1FC" transform="translate(286,481)"/>
<path d="M0 0 C0.99 0 1.98 0 3 0 C3 1.98 3 3.96 3 6 C1.02 6 -0.96 6 -3 6 C-3.33 4.35 -3.66 2.7 -4 1 C-1.525 1.99 -1.525 1.99 1 3 C0.67 2.01 0.34 1.02 0 0 Z " fill="#2958FE" transform="translate(328,453)"/>
<path d="M0 0 C1 3 1 3 -0.4375 6.1875 C-1.2109375 7.5796875 -1.2109375 7.5796875 -2 9 C-2.99 9 -3.98 9 -5 9 C-4.67 7.02 -4.34 5.04 -4 3 C-3.01 2.67 -2.02 2.34 -1 2 C-0.67 1.34 -0.34 0.68 0 0 Z " fill="#133CFE" transform="translate(352,552)"/>
<path d="M0 0 C0.556875 0.185625 1.11375 0.37125 1.6875 0.5625 C4.399133 1.07551165 6.34371039 0.6640724 9 0 C8.1875 1.9375 8.1875 1.9375 7 4 C6.01 4.33 5.02 4.66 4 5 C1.8125 3.6875 1.8125 3.6875 0 2 C0 1.34 0 0.68 0 0 Z " fill="#1C44FE" transform="translate(337,471)"/>
<path d="M0 0 C1.98 0.495 1.98 0.495 4 1 C3.67 2.65 3.34 4.3 3 6 C1.68 5.67 0.36 5.34 -1 5 C-0.67 3.35 -0.34 1.7 0 0 Z " fill="#E8EDFD" transform="translate(343,423)"/>
<path d="M0 0 C2.0625 0.4375 2.0625 0.4375 4 1 C3.67 2.32 3.34 3.64 3 5 C1.68 5 0.36 5 -1 5 C-1 1 -1 1 0 0 Z " fill="#E6ECFC" transform="translate(268,423)"/>
<path d="M0 0 C-0.680625 0.61875 -0.680625 0.61875 -1.375 1.25 C-3.05950374 3.06408095 -3.99265971 4.75285627 -5 7 C-5.66 6.67 -6.32 6.34 -7 6 C-6.67 4.02 -6.34 2.04 -6 0 C-3 -1 -3 -1 0 0 Z " fill="#2D55FE" transform="translate(269,422)"/>
<path d="M0 0 C0.66 0.33 1.32 0.66 2 1 C1.773125 1.763125 1.54625 2.52625 1.3125 3.3125 C1.209375 4.199375 1.10625 5.08625 1 6 C2.33378575 7.8354799 2.33378575 7.8354799 4 9 C1.61435923 8.42415568 -0.66682784 7.77772405 -3 7 C-3.1875 4.625 -3.1875 4.625 -3 2 C-2.01 1.34 -1.02 0.68 0 0 Z " fill="#2A57FE" transform="translate(306,565)"/>
<path d="M0 0 C1.32 0.66 2.64 1.32 4 2 C3.34 3.32 2.68 4.64 2 6 C0.68 5.34 -0.64 4.68 -2 4 C-1.34 2.68 -0.68 1.36 0 0 Z " fill="#ECEFFC" transform="translate(309,566)"/>
<path d="M0 0 C2.0625 0.4375 2.0625 0.4375 4 1 C4 1.66 4 2.32 4 3 C3.34 3 2.68 3 2 3 C2 4.98 2 6.96 2 9 C1.01 8.34 0.02 7.68 -1 7 C-1.25 3.9375 -1.25 3.9375 -1 1 C-0.67 0.67 -0.34 0.34 0 0 Z " fill="#2C59FE" transform="translate(272,432)"/>
<path d="M0 0 C0.99 0 1.98 0 3 0 C3 0.99 3 1.98 3 3 C-1.34285714 7 -1.34285714 7 -4 7 C-4.33 6.01 -4.66 5.02 -5 4 C-4.01 3.67 -3.02 3.34 -2 3 C-1.34 2.01 -0.68 1.02 0 0 Z " fill="#466AFD" transform="translate(349,545)"/>
<path d="M0 0 C0.33 0.66 0.66 1.32 1 2 C1.99 2 2.98 2 4 2 C2.71567636 4.56864728 1.63365249 4.946539 -1 6 C-2.32 6 -3.64 6 -5 6 C-3.625 4 -3.625 4 -2 2 C-1.34 2 -0.68 2 0 2 C0 1.34 0 0.68 0 0 Z " fill="#0F38FE" transform="translate(310,506)"/>
<path d="M0 0 C1.96301592 3.50538557 2.95902388 7.13351728 4 11 C3.01 11.99 2.02 12.98 1 14 C0.34 13.67 -0.32 13.34 -1 13 C-0.649375 12.154375 -0.29875 11.30875 0.0625 10.4375 C1.12277509 6.54982467 0.78314872 3.91574361 0 0 Z " fill="#0C35FE" transform="translate(320,487)"/>
<path d="M0 0 C2.34917898 2.15341406 3.82443004 4.21667937 5.25 7.0625 C5.60578125 7.75472656 5.9615625 8.44695312 6.328125 9.16015625 C6.54984375 9.76730469 6.7715625 10.37445313 7 11 C6.67 11.66 6.34 12.32 6 13 C5.34 13 4.68 13 4 13 C3.51891725 11.58398286 3.04021859 10.16715563 2.5625 8.75 C2.29566406 7.96109375 2.02882813 7.1721875 1.75390625 6.359375 C1.08045292 4.25178012 0.50849405 2.15246027 0 0 Z " fill="#2E58FE" transform="translate(343,484)"/>
<path d="M0 0 C1.32 0.66 2.64 1.32 4 2 C3.34 3.32 2.68 4.64 2 6 C1.01 5.67 0.02 5.34 -1 5 C-1.33 4.01 -1.66 3.02 -2 2 C-1.34 1.34 -0.68 0.68 0 0 Z " fill="#E7EDFC" transform="translate(384,423)"/>
<path d="M0 0 C5.66153846 1.47692308 5.66153846 1.47692308 7.375 4.125 C7.58125 4.74375 7.7875 5.3625 8 6 C7.34 6.66 6.68 7.32 6 8 C5.79375 7.38125 5.5875 6.7625 5.375 6.125 C3.45224112 3.15346355 1.33405473 2.86975341 -2 2 C-1.34 1.34 -0.68 0.68 0 0 Z " fill="#2652FE" transform="translate(365,517)"/>
<path d="M0 0 C2.3125 0.125 2.3125 0.125 5 1 C6.8125 4.0625 6.8125 4.0625 8 7 C5.36 6.34 2.72 5.68 0 5 C0.66 4.67 1.32 4.34 2 4 C2 3.34 2 2.68 2 2 C1.34 2 0.68 2 0 2 C0 1.34 0 0.68 0 0 Z " fill="#153DFE" transform="translate(324,492)"/>
<path d="M0 0 C1.98 0.495 1.98 0.495 4 1 C4 2.32 4 3.64 4 5 C2.35 4.67 0.7 4.34 -1 4 C-0.67 2.68 -0.34 1.36 0 0 Z " fill="#E9EEFC" transform="translate(364,481)"/>
<path d="M0 0 C0 2 0 2 -1.8125 3.9375 C-2.534375 4.618125 -3.25625 5.29875 -4 6 C-4.5775 6.5775 -5.155 7.155 -5.75 7.75 C-6.36875 8.36875 -6.36875 8.36875 -7 9 C-7.66 8.34 -8.32 7.68 -9 7 C-7.88121617 5.82737096 -6.75476949 4.66204862 -5.625 3.5 C-4.68527344 2.52546875 -4.68527344 2.52546875 -3.7265625 1.53125 C-2 0 -2 0 0 0 Z " fill="#2F59FE" transform="translate(356,461)"/>
<path d="M0 0 C1.98 0.495 1.98 0.495 4 1 C3.67 2.32 3.34 3.64 3 5 C1.68 4.67 0.36 4.34 -1 4 C-0.67 2.68 -0.34 1.36 0 0 Z " fill="#E7EBFD" transform="translate(343,567)"/>
<path d="M0 0 C0.33 0.66 0.66 1.32 1 2 C0.22265625 3.7265625 0.22265625 3.7265625 -0.9375 5.625 C-1.618125 6.73875 -2.29875 7.8525 -3 9 C-3.33 8.34 -3.66 7.68 -4 7 C-3.67 6.34 -3.34 5.68 -3 5 C-3.66 4.67 -4.32 4.34 -5 4 C-3.36587557 2.29159719 -2.13093906 1.06546953 0 0 Z " fill="#133BFE" transform="translate(334,448)"/>
<path d="M0 0 C0.66 0.33 1.32 0.66 2 1 C1.67 2.98 1.34 4.96 1 7 C0.01 7 -0.98 7 -2 7 C-1.125 1.125 -1.125 1.125 0 0 Z " fill="#2A50FE" transform="translate(350,423)"/>
<path d="M0 0 C1.32 0.66 2.64 1.32 4 2 C3.01 2.495 3.01 2.495 2 3 C1.34227572 6.02934491 1.34227572 6.02934491 1 9 C0.34 9 -0.32 9 -1 9 C-1.09765625 2.84765625 -1.09765625 2.84765625 -1 1 C-0.67 0.67 -0.34 0.34 0 0 Z " fill="#2C58FE" transform="translate(340,420)"/>
<path d="M0 0 C0.66 0.33 1.32 0.66 2 1 C2.40729228 3.32156597 2.74438677 5.6568787 3 8 C2.01 8 1.02 8 0 8 C0 7.34 0 6.68 0 6 C-0.66 5.67 -1.32 5.34 -2 5 C-1.34 5 -0.68 5 0 5 C-0.2784375 4.0409375 -0.2784375 4.0409375 -0.5625 3.0625 C-0.7790625 2.0415625 -0.7790625 2.0415625 -1 1 C-0.67 0.67 -0.34 0.34 0 0 Z " fill="#2E59FE" transform="translate(314,565)"/>
<path d="M0 0 C1.32 0 2.64 0 4 0 C3.25 5.75 3.25 5.75 1 8 C1 6.02 1 4.04 1 2 C0.34 1.67 -0.32 1.34 -1 1 C-0.67 0.67 -0.34 0.34 0 0 Z " fill="#2D5AFE" transform="translate(312,553)"/>
<path d="M0 0 C0.5775 0.165 1.155 0.33 1.75 0.5 C4.26664369 1.14462031 4.26664369 1.14462031 8 1 C6.35 2.65 4.7 4.3 3 6 C3 5.34 3 4.68 3 4 C2.01 3.34 1.02 2.68 0 2 C0 1.34 0 0.68 0 0 Z " fill="#0D38FE" transform="translate(292,518)"/>
<path d="M0 0 C1.98 1.65 3.96 3.3 6 5 C5.67 5.99 5.34 6.98 5 8 C2 7 2 7 0.8125 5.125 C0 3 0 3 0 0 Z " fill="#2756FE" transform="translate(356,508)"/>
<path d="M0 0 C0.66 0 1.32 0 2 0 C2.33 0.99 2.66 1.98 3 3 C2.34 3.66 1.68 4.32 1 5 C1 5.99 1 6.98 1 8 C0.01 8 -0.98 8 -2 8 C-2 4.8734367 -1.4292493 3.67984243 0 1 C0 0.67 0 0.34 0 0 Z " fill="#0F38FE" transform="translate(337,503)"/>
<path d="M0 0 C2.33944736 0.28730055 4.6739143 0.61936779 7 1 C7 1.99 7 2.98 7 4 C6.401875 3.79375 5.80375 3.5875 5.1875 3.375 C2.71549154 2.69328085 2.71549154 2.69328085 0 5 C-0.5625 3.0625 -0.5625 3.0625 -1 1 C-0.67 0.67 -0.34 0.34 0 0 Z " fill="#113BFE" transform="translate(284,518)"/>
<path d="M0 0 C0.99 0.66 1.98 1.32 3 2 C2.01 4.31 1.02 6.62 0 9 C-1.125 7.3125 -1.125 7.3125 -2 5 C-1.125 2.25 -1.125 2.25 0 0 Z " fill="#2450FE" transform="translate(293,463)"/>
<path d="M0 0 C1 3 1 3 -0.4375 6.1875 C-1.2109375 7.5796875 -1.2109375 7.5796875 -2 9 C-2.66 9 -3.32 9 -4 9 C-3.38461538 3.46153846 -3.38461538 3.46153846 -1.4375 1.125 C-0.963125 0.75375 -0.48875 0.3825 0 0 Z " fill="#234EFF" transform="translate(305,439)"/>
<path d="M0 0 C0.99 0 1.98 0 3 0 C2.67 1.65 2.34 3.3 2 5 C1.01 5 0.02 5 -1 5 C-1.33 4.01 -1.66 3.02 -2 2 C-1.34 1.34 -0.68 0.68 0 0 Z " fill="#3052FE" transform="translate(370,440)"/>
<path d="M0 0 C0.66 0.99 1.32 1.98 2 3 C0.35 4.65 -1.3 6.3 -3 8 C-3.625 6.125 -3.625 6.125 -4 4 C-3.34 3.34 -2.68 2.68 -2 2 C-1.34 2.33 -0.68 2.66 0 3 C0 2.01 0 1.02 0 0 Z " fill="#2C56FE" transform="translate(353,548)"/>
<path d="M0 0 C0.99 0.495 0.99 0.495 2 1 C2.484375 2.77734375 2.484375 2.77734375 2.75 4.9375 C2.84796875 5.64777344 2.9459375 6.35804688 3.046875 7.08984375 C3 9 3 9 1 11 C0.12132271 7.26562152 -0.08912219 3.83225427 0 0 Z " fill="#0932FE" transform="translate(321,528)"/>
</svg>
