<svg width="40" height="43" viewBox="0 0 36 43" fill="none" xmlns="http://www.w3.org/2000/svg">
<path d="M8.63281 8L15.8667 14.1803C16.2962 14.5472 16.5438 15.0856 16.5438 15.6527V20.3104L9.30979 14.1302C8.88033 13.7633 8.63281 13.2248 8.63281 12.6577V8Z" fill="#5044E5"/>
<path d="M8.63281 35.9999L15.8667 29.8196C16.2962 29.4527 16.5438 28.9143 16.5438 28.3472V23.6895L9.30979 29.8697C8.88033 30.2366 8.63281 30.775 8.63281 31.3421V35.9999Z" fill="#5044E5"/>
<path d="M0 14.5166L7.13558 20.5788C7.48152 20.8727 7.91958 21.0339 8.37228 21.0339H14.1268L7.00881 14.9731C6.66261 14.6784 6.22387 14.5166 5.77046 14.5166H0Z" fill="#5044E5"/>
<path d="M0 29.4822L7.09169 23.4235C7.43826 23.1274 7.87793 22.9648 8.33245 22.9648H14.144L7.00839 29.027C6.66242 29.3209 6.22434 29.4822 5.77166 29.4822H0Z" fill="#5044E5"/>
<path d="M26.3719 8L19.1379 14.1803C18.7085 14.5472 18.4609 15.0856 18.4609 15.6527V20.3104L25.6949 14.1302C26.1243 13.7633 26.3719 13.2248 26.3719 12.6577V8Z" fill="#5044E5"/>
<path d="M26.3719 35.9999L19.1379 29.8196C18.7085 29.4527 18.4609 28.9143 18.4609 28.3472V23.6895L25.6949 29.8697C26.1243 30.2366 26.3719 30.775 26.3719 31.3421V35.9999Z" fill="#5044E5"/>
<path d="M35.0019 14.5166L27.8663 20.5788C27.5204 20.8727 27.0822 21.0339 26.6296 21.0339H20.875L27.9931 14.9731C28.3392 14.6784 28.778 14.5166 29.2314 14.5166H35.0019Z" fill="#5044E5"/>
<path d="M34.9994 29.4822L27.9077 23.4235C27.5612 23.1274 27.1214 22.9648 26.6669 22.9648H20.8555L27.991 29.027C28.337 29.3209 28.775 29.4822 29.2277 29.4822H34.9994Z" fill="#5044E5"/>
</svg>
